<svg width="246" height="51" viewBox="0 0 246 51" fill="none" xmlns="http://www.w3.org/2000/svg">
<path d="M107.984 36.3253V42.4662H106.874C96.0494 43.1138 89.4805 38.7654 87.1676 29.421C87.1676 27.3047 87.1676 25.9516 87.1676 25.4312C87.1676 23.4883 87.1676 21.3372 87.1676 18.978V7.56343C87.1609 7.53474 87.1617 7.50483 87.1698 7.47652C87.1779 7.4482 87.1931 7.42242 87.2139 7.40159C87.2347 7.38077 87.2605 7.36559 87.2888 7.35748C87.3171 7.34938 87.3471 7.34861 87.3757 7.35527H92.7187C92.7474 7.34861 92.7773 7.34938 92.8056 7.35748C92.8339 7.36559 92.8597 7.38077 92.8806 7.40159C92.9014 7.42242 92.9166 7.4482 92.9247 7.47652C92.9328 7.50483 92.9335 7.53474 92.9269 7.56343V22.6556L93.3432 28.4149C94.4187 33.8619 98.2351 36.6722 104.758 36.8457C105.853 36.8265 106.939 36.6512 107.984 36.3253Z" fill="#DAB93C"/>
<path d="M119.609 37.8865V42.3621C119.616 42.3908 119.615 42.4207 119.607 42.449C119.599 42.4774 119.584 42.5031 119.563 42.524C119.542 42.5448 119.516 42.56 119.488 42.5681C119.46 42.5762 119.43 42.5769 119.401 42.5703H114.162C114.162 42.5703 113.954 42.5703 113.954 42.3621V7.66752C113.948 7.63882 113.948 7.60891 113.956 7.5806C113.965 7.55228 113.98 7.5265 114.001 7.50567C114.021 7.48485 114.047 7.46967 114.075 7.46156C114.104 7.45346 114.134 7.45269 114.162 7.45935H119.401C119.43 7.45269 119.46 7.45346 119.488 7.46156C119.516 7.46967 119.542 7.48485 119.563 7.50567C119.584 7.5265 119.599 7.55228 119.607 7.5806C119.615 7.60891 119.616 7.63882 119.609 7.66752V37.9212V37.8865Z" fill="#DAB93C"/>
<path d="M145.353 36.811V42.9866H144.243C133.349 43.6111 126.895 39.2743 124.502 29.9068C124.502 27.7904 124.502 26.4373 124.502 25.9169C124.502 24.7373 124.502 23.4536 124.502 22.1005V7.63281C124.495 7.60412 124.496 7.57421 124.504 7.5459C124.512 7.51758 124.527 7.4918 124.548 7.47097C124.569 7.45015 124.594 7.43497 124.623 7.42686C124.651 7.41876 124.681 7.418 124.71 7.42465H129.949C129.977 7.418 130.007 7.41876 130.036 7.42686C130.064 7.43497 130.09 7.45015 130.11 7.47097C130.131 7.4918 130.146 7.51758 130.155 7.5459C130.163 7.57421 130.163 7.60412 130.157 7.63281V15.2656L145.145 15.0228V20.9208H130.157V23.1413L130.538 28.9006C131.649 34.3824 135.43 37.1926 141.953 37.3314C143.106 37.326 144.251 37.1506 145.353 36.811Z" fill="#DAB93C"/>
<path d="M166.238 8.84712H167.14C169.758 8.88469 172.331 9.53128 174.655 10.7357C176.98 11.9401 178.992 13.6692 180.532 15.786C182.715 18.6003 183.932 22.0437 184.002 25.6046V26.9924C184.002 28.2067 184.002 28.7965 183.724 28.7965H154.927C155.54 31.4158 157.002 33.7587 159.085 35.4597C161.169 37.1606 163.757 38.1237 166.446 38.1988H166.967C168.762 38.1829 170.532 37.7667 172.146 36.9805C173.761 36.1942 175.18 35.0577 176.299 33.6538H182.232C180.488 37.566 177.272 40.6327 173.281 42.1886C171.276 43.0127 169.134 43.4483 166.967 43.4723H166.793C163.779 43.4683 160.818 42.679 158.202 41.1824C155.586 39.6858 153.405 37.5335 151.874 34.9375C150.363 32.2311 149.552 29.1899 149.515 26.0903C149.522 23.12 150.291 20.201 151.749 17.6131C153.207 15.0252 155.305 12.855 157.842 11.3104C160.384 9.78539 163.275 8.93731 166.238 8.84712ZM154.927 23.5229H178.555C177.852 20.5025 176.045 17.8541 173.489 16.0983C171.604 14.8438 169.403 14.1464 167.14 14.086H166.134C164.221 14.1386 162.35 14.6556 160.682 15.5925C159.014 16.5293 157.598 17.8579 156.558 19.4637C155.781 20.711 155.229 22.0849 154.927 23.5229Z" fill="#DAB93C"/>
<path d="M209.538 13.5656C208.409 13.2446 207.242 13.0811 206.069 13.0799C199.546 13.2533 195.66 16.0636 194.654 21.5107L194.238 27.27V42.3621V42.5703H188.895C188.866 42.5769 188.836 42.5762 188.808 42.5681C188.78 42.56 188.754 42.5448 188.733 42.524C188.712 42.5031 188.697 42.4773 188.689 42.449C188.681 42.4207 188.68 42.3908 188.687 42.3621V30.9476C188.687 28.6346 188.687 26.4835 188.687 24.4944C188.687 23.9393 188.687 22.6209 188.687 20.5045C190.976 11.1717 197.534 6.80014 208.428 7.42464H209.538V13.5656Z" fill="#DAB93C"/>
<path d="M227.266 7.42465H227.855C232.202 7.48424 236.375 9.13874 239.582 12.0737V7.63281C239.576 7.60412 239.576 7.57421 239.584 7.5459C239.593 7.51758 239.608 7.4918 239.629 7.47097C239.649 7.45015 239.675 7.43497 239.703 7.42686C239.732 7.41876 239.762 7.418 239.79 7.42465H245.029C245.058 7.418 245.088 7.41876 245.116 7.42686C245.145 7.43497 245.17 7.45015 245.191 7.47097C245.212 7.4918 245.227 7.51758 245.235 7.5459C245.243 7.57421 245.244 7.60412 245.237 7.63281V42.3274C245.244 42.3561 245.243 42.386 245.235 42.4143C245.227 42.4427 245.212 42.4684 245.191 42.4893C245.17 42.5101 245.145 42.5253 245.116 42.5334C245.088 42.5415 245.058 42.5422 245.029 42.5356H239.825C239.796 42.5422 239.766 42.5415 239.738 42.5334C239.71 42.5253 239.684 42.5101 239.663 42.4893C239.642 42.4684 239.627 42.4427 239.619 42.4143C239.611 42.386 239.61 42.3561 239.617 42.3274V37.8865C236.556 40.7925 232.526 42.4611 228.306 42.5703H226.815C224.449 42.4628 222.13 41.8788 219.996 40.8534C217.861 39.828 215.956 38.3823 214.394 36.6028C211.725 33.48 210.207 29.5373 210.092 25.4311V24.9454C210.101 22.1755 210.774 19.4481 212.054 16.9914C213.333 14.5347 215.183 12.4202 217.447 10.8247C220.284 8.69236 223.718 7.50321 227.266 7.42465ZM215.747 24.772V25.4311C215.769 27.5067 216.343 29.5391 217.41 31.3196C218.477 33.1 219.998 34.5643 221.819 35.562C223.428 36.4841 225.239 36.9964 227.092 37.0538H228.064C231.09 36.9393 233.958 35.6717 236.081 33.5108C238.203 31.3499 239.418 28.4593 239.478 25.4311V24.6332C239.414 22.4222 238.729 20.2739 237.502 18.4334C236.275 16.593 234.555 15.1346 232.539 14.2248C231.033 13.5907 229.42 13.2493 227.786 13.2186H227.474C224.405 13.2569 221.476 14.5036 219.321 16.6881C217.143 18.8007 215.863 21.6709 215.747 24.7026V24.772Z" fill="#DAB93C"/>
<path d="M75.1669 42.258L71.6974 50.8276C68.8813 50.5979 66.1124 49.967 63.4748 48.9541L61.0462 48.0173C55.523 46.0462 50.6983 42.5001 47.1683 37.8171C45.9887 36.1518 43.9417 27.4087 42.9009 25.4658L51.0888 23.4883C51.0888 23.9046 51.4358 24.5638 51.748 25.3965C52.3548 27.2749 53.0969 29.107 53.9685 30.8782C54.7949 32.3127 55.7469 33.6712 56.8134 34.9375C58.9705 37.2957 61.6251 39.1444 64.585 40.3498L66.181 40.9743C69.0415 42.0728 72.1131 42.5116 75.1669 42.258Z" fill="#9583A0"/>
<path d="M51.2598 23.3842L42.9678 25.4311C44.0086 27.4087 46.0209 36.0824 47.2005 37.7477L51.919 25.4311L51.2598 23.3842Z" fill="#9583A0"/>
<path d="M42.9678 25.4312C44.0086 27.4087 46.0556 36.1171 47.2352 37.7824L42.9678 25.4312Z" fill="#9583A0"/>
<path d="M51.2615 23.3842L42.9695 25.4311L41.2348 20.0535C40.2454 17.1066 38.4622 14.4897 36.0815 12.4909C33.7007 10.4921 30.8147 9.18877 27.741 8.72444C24.6673 8.2601 21.5251 8.65272 18.6601 9.85908C15.7952 11.0654 13.3186 13.0388 11.5028 15.562C9.68708 18.0851 8.60261 21.0603 8.36876 24.1601C8.1349 27.2598 8.76072 30.364 10.1774 33.1311C11.594 35.8981 13.7465 38.2207 16.398 39.8432C19.0496 41.4657 22.0973 42.3253 25.2059 42.3274C32.4917 42.3274 37.2796 41.1825 39.6388 34.764L40.9919 30.6353C42.0328 32.9252 43.2818 39.2743 44.4614 41.0437C42.4936 44.3239 39.6475 46.9883 36.2447 48.7356C32.842 50.483 29.0183 51.2437 25.2059 50.9317C20.534 50.903 15.9607 49.5843 11.9908 47.1212C8.0208 44.658 4.80836 41.1461 2.70784 36.973C0.607319 32.7998 -0.299642 28.1275 0.087014 23.4715C0.47367 18.8155 2.13891 14.3568 4.89904 10.5872C7.65916 6.81769 11.4069 3.88382 15.7288 2.10928C20.0507 0.334737 24.7788 -0.211502 29.3914 0.530818C34.0041 1.27314 38.3221 3.27517 41.869 6.31605C45.4159 9.35693 48.054 13.3185 49.4921 17.7636L51.2615 23.3842Z" fill="#9583A0"/>
<path d="M51.6413 13.184C50.7045 10.9288 50.2535 9.71449 49.5249 8.08384L52.4739 0H61.2864L54.3475 20.8168C54.0699 19.9841 53.827 19.2902 53.723 18.9086L51.6413 13.184Z" fill="#9583A0"/>
<path d="M51.2945 23.3842C51.2945 23.8005 51.6415 24.4597 51.9537 25.2924L51.4333 23.9393L51.1905 23.3495L47.3394 12.9411V12.5941C48.2721 14.1839 49.0283 15.8708 49.5945 17.6249" fill="#9583A0"/>
<path d="M66.0045 36.2906L62.084 34.6599L57.6084 21.7188L59.4819 16.2024L66.0045 36.2906Z" fill="#9583A0"/>
<path d="M74.2976 39.8641L70.3424 38.1641L61.3218 10.7206L63.1606 5.16949L74.2976 39.8641Z" fill="#9583A0"/>
</svg>
