<svg width="212" height="160" viewBox="0 0 212 160" fill="none" xmlns="http://www.w3.org/2000/svg">
<g opacity="0.5">
<path d="M0.570312 108.74C0.570312 71.4204 32.5003 24.66 74.7603 1.27997C76.7303 0.186829 79.0193 -0.186252 81.2345 0.224309C83.4497 0.634871 85.4529 1.80347 86.9003 3.52997C88.4011 5.50579 89.1367 7.95812 88.9713 10.4338C88.8058 12.9094 87.7506 15.2416 86.0003 17.0002C68.4703 32.2802 58.1203 47.5702 56.3303 58.8102C81.5103 61.9602 102.19 83.5404 102.19 108.72C102.19 137.05 79.2603 159.98 51.3803 159.98C24.0003 160 0.570312 136.62 0.570312 108.74ZM109.83 108.74C109.83 71.4204 141.76 24.66 184.02 1.27997C185.909 0.167237 188.138 -0.217781 190.29 0.196477C192.443 0.610736 194.37 1.7958 195.71 3.52997C196.559 4.46442 197.21 5.56038 197.625 6.75214C198.04 7.9439 198.211 9.20729 198.127 10.4665C198.043 11.7257 197.706 12.9552 197.136 14.0812C196.566 15.2073 195.775 16.2067 194.81 17.0202C177.73 32.3002 167.39 47.5903 165.59 58.8303C190.32 61.9803 211.45 83.5604 211.45 108.74C211.454 115.473 210.131 122.14 207.556 128.361C204.982 134.582 201.206 140.235 196.445 144.995C191.685 149.756 186.032 153.531 179.811 156.106C173.59 158.681 166.923 160.004 160.19 160C132.76 160 109.83 136.62 109.83 108.74Z" fill="#BC9DD1"/>
</g>
</svg>
