<svg width="212" height="161" viewBox="0 0 212 161" fill="none" xmlns="http://www.w3.org/2000/svg">
<g opacity="0.5">
<path d="M211.45 51.3101C211.45 88.6301 179.53 135.39 137.26 158.77C135.291 159.862 133.003 160.236 130.789 159.828C128.574 159.419 126.57 158.253 125.12 156.53C123.612 154.553 122.872 152.097 123.037 149.616C123.203 147.135 124.263 144.799 126.02 143.04C143.56 127.75 153.9 112.46 155.7 101.22C130.52 98.0702 109.83 76.4901 109.83 51.3101C109.83 22.9801 132.76 0.0498135 160.64 0.0498135C188.07 0.0498135 211.45 23.4301 211.45 51.3101ZM102.19 51.3101C102.19 88.6301 70.2703 135.39 28.0003 158.77C26.1131 159.884 23.8843 160.271 21.7321 159.858C19.5799 159.446 17.6521 158.262 16.3103 156.53C15.4621 155.595 14.8109 154.5 14.3958 153.308C13.9806 152.116 13.8099 150.853 13.8939 149.594C13.9779 148.335 14.3149 147.105 14.8847 145.979C15.4545 144.853 16.2455 143.854 17.2103 143.04C34.2903 127.75 44.6404 112.46 46.4304 101.22C21.7004 98.0702 0.570321 76.4901 0.570321 51.3101C0.566378 44.5774 1.88958 37.9099 4.46424 31.689C7.0389 25.468 10.8145 19.8154 15.5752 15.0547C20.3359 10.294 25.9884 6.51852 32.2093 3.94386C38.4302 1.3692 45.0976 0.0458697 51.8303 0.0498135C79.2603 0.0498135 102.19 23.4301 102.19 51.3101Z" fill="#BC9DD1"/>
</g>
</svg>
