<svg width="69" height="79" viewBox="0 0 69 79" fill="none" xmlns="http://www.w3.org/2000/svg">
<g clip-path="url(#clip0_28_4451)">
<path d="M35.9998 0C37.8198 0.34 39.6798 0.56 41.4598 1.05C46.5226 2.46328 50.9964 5.468 54.2198 9.62C56.6446 12.6075 58.3272 16.1269 59.1298 19.89C59.8805 23.0948 59.9842 26.4172 59.4347 29.6625C58.8852 32.9079 57.6937 36.011 55.9298 38.79C53.3398 43 50.6498 47.05 47.9998 51.17C47.8798 51.36 47.7698 51.56 47.6098 51.85C48.4198 52 49.1598 52.12 49.8998 52.27C54.2873 53.0162 58.5401 54.4079 62.5198 56.4C64.7677 57.4339 66.6702 59.0934 67.9998 61.18C68.7338 62.3632 69.0828 63.7449 68.9986 65.1347C68.9144 66.5246 68.4013 67.8541 67.5298 68.94C66.0631 70.8037 64.1652 72.2828 61.9998 73.25C57.5941 75.3527 52.8876 76.7562 48.0498 77.41C40.4434 78.6292 32.708 78.8243 25.0498 77.99C19.2481 77.5117 13.5582 76.1212 8.18981 73.87C5.78279 72.9158 3.62976 71.4165 1.89981 69.49C1.25021 68.7878 0.748336 67.9623 0.423978 67.0624C0.0996205 66.1625 -0.0406044 65.2066 0.01163 64.2514C0.0638644 63.2963 0.307493 62.3614 0.72805 61.5022C1.14861 60.6431 1.73752 59.8772 2.45981 59.25C4.55113 57.324 7.01045 55.8409 9.68981 54.89C13.2484 53.5475 16.9339 52.5691 20.6898 51.97C20.8798 51.97 21.0698 51.88 21.3398 51.82C21.1498 51.52 21.0098 51.28 20.8598 51.05C18.2298 47 15.5498 42.87 12.9998 38.73C9.69049 33.5714 8.46445 27.3483 9.56981 21.32C11.1698 12.32 16.2898 5.89 24.5698 2.06C27.0245 0.948164 29.6605 0.290855 32.3498 0.12C32.5485 0.0906088 32.7454 0.0505509 32.9398 0L35.9998 0ZM34.4798 63.8C34.6698 63.52 34.8298 63.3 34.9798 63.07C40.4998 54.4033 46.0198 45.7533 51.5398 37.12C55.9098 30.33 56.4598 23.23 52.8698 16.04C51.3999 12.8753 49.111 10.1608 46.2399 8.17762C43.3689 6.19441 40.02 5.0145 36.5398 4.76C28.7198 4 22.4098 7 17.7198 13.27C15.3142 16.604 13.9522 20.5769 13.8062 24.6855C13.6603 28.7942 14.7369 32.8537 16.8998 36.35L33.9998 63.13C34.1498 63.34 34.2898 63.54 34.4798 63.8ZM34.4798 73.73C36.2098 73.73 37.9498 73.8 39.6798 73.73C45.2287 73.5013 50.7199 72.5121 55.9998 70.79C58.5571 70.0671 60.9393 68.8283 62.9998 67.15C64.8298 65.52 64.8598 64.03 63.0998 62.34C61.631 61.0422 59.9362 60.0253 58.0998 59.34C53.9906 57.7216 49.6817 56.6654 45.2898 56.2C45.1415 56.2136 44.9981 56.2602 44.87 56.3363C44.742 56.4124 44.6326 56.5162 44.5498 56.64C43.4798 58.25 42.4498 59.9 41.4098 61.53C39.8098 64.05 38.1998 66.53 36.5998 69.09C36.3702 69.5503 35.9976 69.9237 35.5379 70.1545C35.0782 70.3852 34.5561 70.4609 34.0498 70.37C33.6747 70.2858 33.3231 70.1192 33.0204 69.8822C32.7177 69.6453 32.4716 69.3439 32.2998 69C29.6998 64.9067 27.0998 60.8167 24.4998 56.73C24.2198 56.3 23.9898 56.07 23.4098 56.19C22.3398 56.43 21.2398 56.52 20.1598 56.72C16.0888 57.3158 12.1491 58.6008 8.50981 60.52C7.34584 61.1995 6.27945 62.0338 5.33981 63C5.09697 63.2149 4.90253 63.4789 4.76936 63.7745C4.63619 64.0702 4.56733 64.3907 4.56733 64.715C4.56733 65.0393 4.63619 65.3598 4.76936 65.6555C4.90253 65.9511 5.09697 66.2151 5.33981 66.43C5.82746 67.0187 6.38489 67.5459 6.99981 68C9.44941 69.6061 12.1548 70.7829 14.9998 71.48C21.3377 73.1801 27.8912 73.9382 34.4498 73.73H34.4798Z" fill="white"/>
<path d="M34.49 36.9399C32.2168 36.938 29.9952 36.2623 28.1057 34.9984C26.2163 33.7344 24.7439 31.9388 23.8744 29.8385C23.005 27.7381 22.7775 25.4272 23.2207 23.1976C23.664 20.968 24.758 18.9198 26.3647 17.3117C27.9714 15.7037 30.0187 14.6078 32.2479 14.1626C34.4771 13.7174 36.7882 13.9429 38.8893 14.8106C40.9904 15.6782 42.7873 17.1491 44.0529 19.0374C45.3185 20.9257 45.996 23.1467 46 25.4199C45.9947 28.4719 44.7807 31.3975 42.6236 33.5564C40.4664 35.7154 37.5419 36.932 34.49 36.9399ZM34.44 18.5499C33.074 18.5559 31.7406 18.9672 30.6086 19.7317C29.4766 20.4961 28.597 21.5794 28.0812 22.8442C27.5653 24.109 27.4365 25.4985 27.711 26.8366C27.9855 28.1747 28.651 29.4012 29.6232 30.3607C30.5954 31.3202 31.8305 31.9696 33.172 32.2266C34.5136 32.4836 35.9012 32.3367 37.1592 31.8044C38.4172 31.272 39.4888 30.3783 40.2384 29.2364C40.988 28.0945 41.3819 26.7558 41.37 25.3899C41.3285 23.5733 40.5823 21.8441 39.2891 20.5676C37.9959 19.2912 36.257 18.5676 34.44 18.5499Z" fill="white"/>
</g>
<defs>
<clipPath id="clip0_28_4451">
<rect width="68.98" height="78.5" fill="white"/>
</clipPath>
</defs>
</svg>
