<svg width="285" height="46" viewBox="0 0 285 46" fill="none" xmlns="http://www.w3.org/2000/svg">
<path d="M127.237 30.7651V34.979C127.079 34.9906 126.92 34.9963 126.761 34.9963H126.489C119.049 35.4247 114.555 32.434 113.009 26.0244C113.009 24.5773 112.989 23.6801 112.942 23.3068C112.989 21.9697 113.011 20.4965 113.009 18.8874V11.0731C113.006 11.0547 113.008 11.036 113.014 11.0184C113.02 11.0008 113.03 10.9848 113.043 10.9717C113.056 10.9586 113.072 10.9486 113.09 10.9426C113.107 10.9366 113.126 10.9347 113.144 10.9371H116.736C116.754 10.9347 116.773 10.9366 116.79 10.9426C116.808 10.9486 116.824 10.9586 116.837 10.9717C116.85 10.9848 116.86 11.0008 116.866 11.0184C116.872 11.036 116.874 11.0547 116.871 11.0731V21.4169L117.143 25.3588C117.887 29.098 120.483 31.0275 124.932 31.1471C125.714 31.1349 126.491 31.0061 127.237 30.7651Z" fill="#D9B839"/>
<path d="M131.42 41.8266C131.339 41.8266 131.296 41.7803 131.284 41.6906V27.1445C131.284 25.5372 131.261 24.0901 131.215 22.8032C131.261 22.3035 131.284 21.0349 131.284 18.9974V11.1831C131.281 11.1645 131.283 11.1456 131.288 11.1277C131.294 11.1098 131.304 11.0936 131.317 11.0803C131.33 11.067 131.347 11.0571 131.364 11.0513C131.382 11.0455 131.401 11.0441 131.42 11.0471H135.008C135.027 11.0441 135.046 11.0455 135.064 11.0513C135.081 11.0571 135.098 11.067 135.111 11.0803C135.124 11.0936 135.134 11.1098 135.14 11.1277C135.145 11.1456 135.147 11.1645 135.144 11.1831V14.1062C137.644 12.0648 140.196 11.0451 142.8 11.0471H143.614C145.668 11.0471 147.745 11.704 149.845 13.018C153.416 15.6864 155.202 18.9231 155.202 22.7279V23.4081C155.202 25.0732 154.75 26.8406 153.846 28.7102C151.227 32.9666 147.727 35.0957 143.348 35.0976H143.086C140.201 35.0976 137.558 34.0557 135.158 31.9719V41.6906C135.158 41.7687 135.115 41.815 135.023 41.8266H131.42ZM135.144 23.6801C135.187 24.615 135.394 25.5349 135.756 26.3978C137.486 29.6161 139.97 31.2243 143.207 31.2223C144.549 31.204 145.869 30.8793 147.067 30.2731C149.911 28.471 151.334 26.1373 151.336 23.2721V22.864C151.305 21.6627 151.028 20.4807 150.523 19.391C148.725 16.3984 146.353 14.9031 143.409 14.905H143.002C141.225 14.922 139.505 15.5445 138.127 16.6704C136.14 18.4841 135.146 20.3904 135.144 22.3893V23.6801Z" fill="#D9B839"/>
<path d="M163.816 34.8922C163.819 34.9107 163.818 34.9297 163.812 34.9476C163.806 34.9654 163.796 34.9817 163.783 34.9949C163.77 35.0082 163.753 35.0182 163.736 35.0239C163.718 35.0297 163.699 35.0312 163.68 35.0282H160.106C160.088 35.0312 160.069 35.0297 160.051 35.0239C160.033 35.0182 160.017 35.0082 160.004 34.9949C159.991 34.9817 159.981 34.9654 159.975 34.9476C159.969 34.9297 159.968 34.9107 159.971 34.8922V27.0779C159.971 25.2198 159.948 23.8605 159.901 23C159.948 22.1414 159.971 20.7821 159.971 18.9221V4.65094C159.971 4.56122 160.025 4.51491 160.106 4.51491H163.695C163.784 4.51491 163.83 4.5699 163.83 4.65094V14.0975C166.225 12.0137 168.867 10.9718 171.758 10.9718H172.026C176.409 10.9718 179.909 13.101 182.527 17.3593C183.431 19.2289 183.883 20.9963 183.883 22.6614V34.8922C183.886 34.9107 183.884 34.9297 183.878 34.9476C183.873 34.9654 183.863 34.9817 183.849 34.9949C183.836 35.0082 183.82 35.0182 183.802 35.0239C183.784 35.0297 183.766 35.0312 183.747 35.0282H180.075C180.056 35.0312 180.037 35.0297 180.02 35.0239C180.002 35.0182 179.986 35.0082 179.972 34.9949C179.959 34.9817 179.949 34.9654 179.943 34.9476C179.938 34.9297 179.936 34.9107 179.939 34.8922L180.011 22.1838C179.707 20.4473 179.188 19.1112 178.453 18.1754C176.682 15.9565 174.492 14.8461 171.882 14.8442C168.647 14.8442 166.164 16.4563 164.433 19.6804C164.074 20.5447 163.868 21.4654 163.825 22.4009V34.9037L163.816 34.8922Z" fill="#D9B839"/>
<path d="M200.204 10.9718H200.611C203.467 10.9718 206.131 12.033 208.605 14.1554V11.1078C208.605 11.0152 208.659 10.9718 208.74 10.9718H212.32C212.413 10.9718 212.456 11.0268 212.456 11.1078V34.8922C212.459 34.9107 212.457 34.9297 212.452 34.9476C212.446 34.9654 212.436 34.9817 212.423 34.9949C212.41 35.0082 212.393 35.0182 212.375 35.0239C212.358 35.0297 212.339 35.0312 212.32 35.0282H208.729C208.71 35.0312 208.691 35.0297 208.673 35.0239C208.656 35.0182 208.64 35.0082 208.626 34.9949C208.613 34.9817 208.603 34.9654 208.597 34.9476C208.592 34.9297 208.59 34.9107 208.593 34.8922V31.8359C206.143 33.9583 203.569 35.0195 200.871 35.0195H199.855C196.907 35.0195 194.084 33.6602 191.385 30.9416C189.445 28.4854 188.475 25.9038 188.475 23.1968V22.864C188.475 19.034 190.145 15.8176 193.485 13.2148C195.632 11.7195 197.871 10.9718 200.204 10.9718ZM192.334 22.7974V23.2055C192.334 26.0591 193.712 28.3697 196.468 30.137C197.561 30.7724 198.795 31.1226 200.057 31.1558H200.735C203.185 31.1558 205.285 30.0232 207.035 27.758C207.98 26.4523 208.5 24.8855 208.524 23.2721V22.7279C208.524 19.7161 206.944 17.3149 203.784 15.5243C202.75 15.1012 201.647 14.8707 200.53 14.8442H200.328C198.263 14.8442 196.411 15.616 194.772 17.1596C193.147 18.8575 192.334 20.7368 192.334 22.7974Z" fill="#D9B839"/>
<path d="M236.417 6.48584C236.086 6.27746 235.757 6.08934 235.425 5.90701L235.237 5.80571C234.379 5.36301 233.472 5.02209 232.534 4.78986C232.376 4.75223 232.223 4.72329 232.067 4.68856C231.488 4.57383 230.9 4.51472 230.31 4.51202C230.268 4.50913 230.226 4.50913 230.183 4.51202H229.543C227.212 4.51202 224.974 5.26064 222.83 6.7579C219.478 9.37037 217.802 12.5935 217.802 16.4273V16.7659C217.802 16.9309 217.802 17.0959 217.802 17.258C217.825 18.2883 217.839 19.4054 217.839 20.6094V35.1642C217.839 35.2568 217.897 35.3002 217.975 35.3002H221.569C221.656 35.3002 221.705 35.2453 221.705 35.1642V25.4456C224.103 27.5313 226.749 28.5732 229.644 28.5713H229.918C231.083 28.5746 232.243 28.4069 233.359 28.0735L233.475 28.033C233.992 27.8718 234.494 27.6686 234.978 27.4252C235.044 27.3963 235.113 27.3615 235.186 27.3239C237.203 26.2781 238.946 24.5609 240.416 22.1723C241.049 20.9043 241.479 19.5435 241.688 18.1407C241.688 18.0683 241.702 17.996 241.711 17.9294C241.75 17.5796 241.769 17.2279 241.769 16.8759V16.2074C241.769 12.3967 239.985 9.1562 236.417 6.48584ZM237.912 16.7457C237.932 18.2873 237.463 19.7954 236.573 21.0522L236.547 21.0898C235.761 22.1583 234.774 23.0619 233.642 23.7496C232.443 24.3571 231.122 24.6827 229.779 24.7018C228.636 24.7141 227.503 24.4823 226.456 24.0216C226.149 23.8786 225.853 23.7152 225.568 23.5325C225.48 23.484 225.397 23.4278 225.32 23.3647C225.036 23.1765 224.768 22.9666 224.518 22.7366C223.629 21.9169 222.891 20.9471 222.337 19.8714C221.978 19.008 221.773 18.0882 221.731 17.1538V15.8659C221.729 15.653 221.741 15.4403 221.768 15.2291C221.921 13.7821 222.602 12.4073 223.805 11.0731C223.868 11.0008 223.935 10.9226 224.007 10.8503L224.194 10.6563C224.359 10.4943 224.529 10.3293 224.705 10.1701C226.083 9.04388 227.8 8.41769 229.577 8.3931H229.981C232.289 8.3931 234.247 9.31635 235.855 11.1628C236.269 11.6395 236.644 12.1485 236.977 12.6852C237.017 12.743 237.049 12.8067 237.089 12.8646C237.13 12.9225 237.141 12.9891 237.164 13.0527C237.479 13.7837 237.699 14.552 237.819 15.3391C237.875 15.6661 237.903 15.9972 237.903 16.3289L237.912 16.7457Z" fill="#D9B839"/>
<path d="M259.034 15.1857C258.285 14.9617 257.508 14.8467 256.727 14.8442C252.278 14.9581 249.682 16.8875 248.938 20.6326L248.669 24.5629V34.8922C248.672 34.9107 248.671 34.9297 248.665 34.9476C248.659 34.9654 248.649 34.9817 248.636 34.9949C248.623 35.0082 248.607 35.0182 248.589 35.0239C248.571 35.0297 248.552 35.0312 248.534 35.0282H244.945C244.927 35.0312 244.908 35.0297 244.89 35.0239C244.872 35.0182 244.856 35.0082 244.843 34.9949C244.829 34.9817 244.819 34.9654 244.814 34.9476C244.808 34.9297 244.806 34.9107 244.809 34.8922V27.0779C244.809 25.4687 244.786 23.9966 244.74 22.6614C244.786 22.288 244.809 21.3793 244.809 19.9409C246.348 13.5293 250.842 10.5387 258.29 10.9689H258.561C258.717 10.9689 258.876 10.9689 259.034 10.9863V15.1857Z" fill="#D9B839"/>
<path d="M272.806 10.9718H273.213C277.084 10.9718 280.335 12.7382 282.966 16.271C284.322 18.3664 285 20.4965 285 22.6614V23.3386C285 27.2496 283.126 30.5577 279.378 33.2627C277.322 34.4339 275.355 35.0195 273.478 35.0195H272.468C269.52 35.0195 266.697 33.6602 263.999 30.9416C262.049 28.4912 261.078 25.9125 261.088 23.2055V22.864C261.088 19.034 262.758 15.8176 266.099 13.2148C268.245 11.7195 270.481 10.9718 272.806 10.9718ZM264.948 22.7974V23.2055C264.948 26.0591 266.325 28.3697 269.079 30.137C270.173 30.772 271.407 31.1223 272.67 31.1558H273.348C275.798 31.1558 277.899 30.0232 279.649 27.758C280.594 26.4523 281.114 24.8855 281.137 23.2721V22.7279C281.137 19.7161 279.557 17.3149 276.398 15.5243C275.363 15.1012 274.26 14.8707 273.144 14.8442H272.942C270.876 14.8442 269.024 15.616 267.385 17.1596C265.762 18.8575 264.95 20.7368 264.948 22.7974Z" fill="#D9B839"/>
<path d="M54.9758 0L48.7966 18.7745L47.8446 15.5215C47.357 13.7162 46.6559 11.976 45.7561 10.338C45.7457 10.3152 45.7341 10.293 45.7214 10.2714C45.5426 9.92991 45.3551 9.59129 45.1445 9.25557L44.9108 8.85617C44.7512 8.59762 44.5896 8.34004 44.4262 8.08343C44.4002 8.0487 44.3742 8.01976 44.3512 7.98502L44.3252 7.92714L47.0975 0H54.9758Z" fill="#AA6DAB"/>
<path d="M65.3174 38.07L65.2655 38.4838L64.3308 45.6556L64.3106 45.8119C64.0202 45.7945 63.7318 45.7685 63.4452 45.7337L62.949 45.6701C50.7435 44.8018 43.0988 39.5778 40.6669 29.9402L38.2033 21.3908C36.7061 16.6155 34.8223 11.9848 29.2027 8.80118C26.9391 7.93872 24.8717 7.50652 23.0004 7.50459H22.6168C18.6761 7.50459 15.1432 8.97483 12.018 11.9153C8.91977 15.151 7.36968 18.735 7.36776 22.6672V23.4428C7.36776 28.8858 9.99484 33.2926 15.249 36.6634C17.6415 37.96 19.9252 38.6083 22.1004 38.6083H23.3899C25.3619 38.6204 27.313 38.2016 29.1075 37.3811C31.3192 36.3682 33.3386 34.7224 35.1656 32.4437C35.2493 32.3424 35.3329 32.2353 35.4137 32.1282C36.1662 31.0459 36.7906 29.8794 37.2744 28.6523L38.2639 32.079C38.7318 33.9944 39.4732 35.8319 40.465 37.5345V37.5519C38.8248 39.4655 36.958 41.1712 34.906 42.6312C30.9769 44.8886 27.2267 46.0116 23.6553 46H21.7109C16.0914 46 10.7064 43.4068 5.55611 38.2205C1.85204 33.5358 0 28.6099 0 23.4428V22.7945C0 22.6122 0 22.427 0 22.2446C0 22.0623 0.014424 21.851 0.0230783 21.6658C0.119665 19.3054 0.607122 16.9775 1.46547 14.7777C2.98095 10.886 5.68111 7.42452 9.56597 4.39335C13.6547 1.53777 17.9174 0.109978 22.3542 0.109978H23.1303C30.5172 0.109978 36.7205 3.48073 41.74 10.2222C41.9045 10.4798 42.066 10.7374 42.2218 10.995C42.2997 11.1281 42.3805 11.2583 42.4583 11.3944C42.6574 11.7301 42.8449 12.0687 43.0353 12.4102C43.0457 12.433 43.0573 12.4552 43.0699 12.4768C43.9653 14.1135 44.6626 15.8517 45.147 17.6545L46.1307 21.0088C46.1768 21.1651 46.2461 21.3851 46.3355 21.6368L47.7231 26.4643C48.0476 27.7795 48.4988 29.0599 49.0703 30.2875C50.8377 34.5786 54.8149 37.2065 61.0018 38.1713C61.9583 38.2955 62.9253 38.3178 63.8866 38.2378C64.3568 38.2031 64.8357 38.151 65.3174 38.07Z" fill="#AA6DAB"/>
<path d="M64.9569 35.9948L56.4092 4.13288L54.6553 9.55946L61.3768 34.6867L64.9569 35.9948Z" fill="#AA6DAB"/>
<path d="M57.139 33.1296L52.5233 15.834L50.7578 21.1796L53.5791 31.807L57.139 33.1296Z" fill="#AA6DAB"/>
<path d="M86.4137 27.842V34.9587C86.4171 34.9794 86.4156 35.0006 86.4093 35.0205C86.403 35.0405 86.3921 35.0587 86.3775 35.0736C86.3629 35.0886 86.3449 35.0998 86.3252 35.1065C86.3054 35.1132 86.2843 35.1151 86.2637 35.1121H82.225C82.2043 35.1151 82.1833 35.1132 82.1635 35.1065C82.1437 35.0998 82.1258 35.0886 82.1112 35.0736C82.0966 35.0587 82.0857 35.0405 82.0794 35.0205C82.0731 35.0006 82.0716 34.9794 82.075 34.9587V22.3488C82.075 20.948 82.049 19.0909 81.9971 16.7775C82.2779 14.4622 82.8356 12.6061 83.6703 11.2091C86.6127 6.57846 90.4918 4.26312 95.3075 4.26312H95.6104C100.528 4.26312 104.458 6.65371 107.401 11.4349C108.412 13.5341 108.919 15.5176 108.921 17.3853V34.9558C108.924 34.9767 108.922 34.9979 108.915 35.0178C108.908 35.0377 108.897 35.0558 108.882 35.0707C108.868 35.0855 108.85 35.0967 108.83 35.1034C108.81 35.1101 108.789 35.1121 108.768 35.1092H104.666C104.645 35.1122 104.624 35.1103 104.604 35.1036C104.584 35.0969 104.567 35.0857 104.552 35.0707C104.537 35.0558 104.526 35.0376 104.52 35.0176C104.514 34.9977 104.512 34.9765 104.516 34.9558V27.842C104.516 22.6903 104.541 19.0244 104.591 16.8441C104.247 14.8838 103.664 13.3827 102.843 12.3408C100.852 9.84984 98.3933 8.60438 95.4662 8.60438C91.8256 8.60438 89.0369 10.4094 87.1003 14.0194C86.6932 14.9894 86.4607 16.0242 86.4137 17.0756V27.842Z" fill="#D9B839"/>
<path d="M106.287 23.4428C105.964 23.3841 105.637 23.3531 105.309 23.3502H84.7954C84.7745 23.3537 84.7531 23.3522 84.7329 23.3457C84.7128 23.3393 84.6944 23.3281 84.6795 23.3131C84.6645 23.298 84.6534 23.2797 84.6469 23.2594C84.6405 23.2392 84.639 23.2177 84.6425 23.1968V19.145C84.639 19.124 84.6405 19.1026 84.6469 19.0823C84.6534 19.0621 84.6645 19.0437 84.6795 19.0287C84.6944 19.0137 84.7128 19.0025 84.7329 18.996C84.7531 18.9896 84.7745 18.988 84.7954 18.9916H93.5392C94.9354 18.9916 103.307 18.9655 105.618 18.9163C105.843 18.9424 106.071 18.9771 106.287 19.0089V23.4428Z" fill="#D9B839"/>
</svg>
