<svg width="247" height="90" viewBox="0 0 247 90" fill="none" xmlns="http://www.w3.org/2000/svg">
<path d="M73.5302 0.889999H16.4502C7.88978 0.889999 0.950195 7.82959 0.950195 16.39V73.54C0.950195 82.1004 7.88978 89.04 16.4502 89.04H73.5302C82.0906 89.04 89.0302 82.1004 89.0302 73.54V16.39C89.0302 7.82959 82.0906 0.889999 73.5302 0.889999Z" fill="#31081F"/>
<path d="M119.84 55V60.68C119.63 60.68 119.42 60.68 119.2 60.68H118.83C108.77 61.26 102.69 57.2267 100.59 48.58C100.59 46.64 100.59 45.41 100.5 44.91C100.56 43.11 100.59 41.11 100.59 38.91V28.48C100.588 28.4551 100.592 28.4301 100.601 28.4068C100.61 28.3835 100.625 28.3626 100.643 28.3454C100.661 28.3282 100.683 28.3152 100.706 28.3074C100.73 28.2995 100.755 28.297 100.78 28.3H105.64C105.664 28.2967 105.689 28.2991 105.713 28.307C105.736 28.3148 105.757 28.328 105.775 28.3454C105.792 28.3628 105.805 28.3841 105.813 28.4074C105.821 28.4307 105.823 28.4556 105.82 28.48V42.41L106.19 47.73C107.19 52.77 110.703 55.3667 116.73 55.52C117.787 55.5019 118.835 55.3267 119.84 55Z" fill="#DAB93C"/>
<path d="M130.45 56.48V60.61C130.45 60.73 130.39 60.79 130.27 60.79H125.41C125.386 60.7915 125.362 60.7878 125.339 60.7793C125.317 60.7707 125.296 60.7575 125.279 60.7405C125.262 60.7235 125.249 60.7031 125.241 60.6806C125.232 60.6581 125.228 60.634 125.23 60.61V28.53C125.23 28.4 125.29 28.34 125.41 28.34H130.27C130.39 28.34 130.45 28.4 130.45 28.53V56.53V56.48Z" fill="#DAB93C"/>
<path d="M154.21 55.5V61.18C154 61.18 153.79 61.18 153.57 61.18H153.21C143.137 61.7533 137.057 57.72 134.97 49.08C134.97 47.14 134.97 45.91 134.88 45.41C134.88 44.3 134.94 43.12 134.96 41.87C134.96 41.09 134.96 40.28 134.96 39.45V28.53C134.957 28.5052 134.959 28.48 134.967 28.4563C134.975 28.4326 134.988 28.4109 135.005 28.3927C135.022 28.3746 135.043 28.3604 135.067 28.3513C135.09 28.3422 135.115 28.3384 135.14 28.34H140C140.025 28.3384 140.05 28.3422 140.073 28.3513C140.096 28.3604 140.117 28.3746 140.135 28.3927C140.152 28.4109 140.165 28.4326 140.173 28.4563C140.18 28.48 140.183 28.5052 140.18 28.53V35.53L154 35.3V40.82H140.15V42.9L140.51 48.21C141.53 53.25 145.047 55.8467 151.06 56C152.129 55.9924 153.191 55.8238 154.21 55.5Z" fill="#DAB93C"/>
<path d="M173.52 29.65H174.35C179.11 29.65 183.233 31.76 186.72 35.98C188.74 38.5781 189.866 41.7596 189.93 45.05V46.33C189.93 47.43 189.84 47.98 189.65 47.98H163.07V48.07C163.629 50.4932 164.975 52.6627 166.899 54.2388C168.822 55.8149 171.214 56.7086 173.7 56.78H174.16C175.819 56.7605 177.453 56.3727 178.944 55.6446C180.434 54.9165 181.745 53.8664 182.78 52.57H188.28C186.668 56.1865 183.692 59.0191 180 60.45C178.095 61.2288 176.058 61.6329 174 61.64H173.82C168.153 61.64 163.57 59.0133 160.07 53.76C158.655 51.2711 157.898 48.4627 157.87 45.6C157.87 40.02 160.437 35.4667 165.57 31.94C167.974 30.4929 170.715 29.7032 173.52 29.65ZM163.07 43.22L184.89 43.31V43.22C184.236 40.426 182.569 37.9743 180.21 36.34C178.462 35.2023 176.435 34.5691 174.35 34.51H173.43C170.097 34.51 167.163 36.1767 164.63 39.51C163.91 40.6527 163.383 41.9061 163.07 43.22Z" fill="#DAB93C"/>
<path d="M213.5 34C212.491 33.6986 211.444 33.5436 210.39 33.54C204.39 33.6933 200.877 36.29 199.85 41.33L199.48 46.65V60.61C199.483 60.6344 199.481 60.6593 199.473 60.6826C199.465 60.706 199.452 60.7272 199.435 60.7446C199.417 60.762 199.396 60.7752 199.373 60.783C199.349 60.7909 199.325 60.7933 199.3 60.79H194.44C194.416 60.7933 194.391 60.7909 194.368 60.783C194.344 60.7752 194.323 60.762 194.306 60.7446C194.288 60.7272 194.275 60.706 194.267 60.6826C194.259 60.6593 194.257 60.6344 194.26 60.61V50.07C194.26 47.9033 194.227 45.9033 194.16 44.07C194.23 43.56 194.26 42.34 194.26 40.4C196.347 31.7333 202.427 27.7 212.5 28.3H212.86C213.08 28.3 213.29 28.3 213.5 28.3V34Z" fill="#DAB93C"/>
<path d="M229.89 28.34H230.44C234.451 28.3985 238.299 29.9329 241.25 32.65V28.53C241.25 28.4 241.33 28.34 241.44 28.34H246.3C246.42 28.34 246.48 28.42 246.48 28.53V60.61C246.483 60.6344 246.481 60.6593 246.473 60.6826C246.465 60.706 246.452 60.7272 246.435 60.7446C246.417 60.762 246.396 60.7752 246.373 60.783C246.349 60.7909 246.324 60.7933 246.3 60.79H241.44C241.31 60.79 241.25 60.73 241.25 60.61V56.48C238.422 59.1627 234.697 60.6987 230.8 60.79H229.43C225.43 60.79 221.61 58.9567 217.97 55.29C215.476 52.3717 214.073 48.678 214 44.84V44.38C214 39.22 216.26 34.8867 220.78 31.38C223.424 29.4394 226.61 28.3762 229.89 28.34ZM219.25 44.29V44.84C219.25 48.6867 221.117 51.8033 224.85 54.19C226.325 55.0499 227.993 55.5244 229.7 55.57H230.62C233.953 55.57 236.797 54.04 239.15 50.98C240.424 49.2177 241.123 47.1046 241.15 44.93V44.2C241.15 40.14 239.013 36.9 234.74 34.48C233.34 33.9132 231.85 33.6049 230.34 33.57H230.06C227.218 33.6031 224.5 34.7401 222.481 36.7406C220.462 38.7411 219.299 41.4483 219.24 44.29H219.25Z" fill="#DAB93C"/>
<path d="M79.7803 60.53L76.7203 68.43C74.1216 68.219 71.5661 67.6399 69.1303 66.71L66.9003 65.85C61.7984 64.03 57.3415 60.7551 54.0803 56.43L54.0103 56.35C52.9003 54.81 51.0003 46.79 50.0703 45L57.6303 43.16H57.7503C57.8603 43.52 58.0803 44.16 58.3503 44.92C58.9135 46.649 59.5814 48.3422 60.3503 49.99C61.1334 51.2764 62.0197 52.497 63.0003 53.64C64.9924 55.815 67.4409 57.5224 70.1703 58.64L71.6603 59.22C74.2363 60.2536 77.01 60.701 79.7803 60.53Z" fill="#9583A0"/>
<path d="M57.7203 43.1H57.6303L50.0703 45C51.0703 46.83 52.8903 54.85 54.0003 56.39L54.0703 56.47L58.3103 45L57.7203 43.1Z" fill="#9583A0"/>
<path d="M50.0703 45C51.0703 46.83 52.9003 54.85 54.0103 56.39L54.0803 56.47" fill="#9583A0"/>
<path d="M57.7197 43.1H57.6297L50.0697 45L48.4397 40C47.527 37.2803 45.8815 34.8652 43.6845 33.0205C41.4874 31.1758 38.824 29.9731 35.9874 29.5447C33.1508 29.1164 30.251 29.4791 27.6072 30.5928C24.9635 31.7066 22.6783 33.5282 21.0032 35.8572C19.3282 38.1861 18.3282 40.9321 18.1135 43.7929C17.8987 46.6536 18.4774 49.5181 19.786 52.0711C21.0945 54.624 23.0821 56.7664 25.5299 58.2624C27.9777 59.7584 30.7909 60.55 33.6597 60.55C40.3697 60.55 44.7997 59.49 46.9997 53.55L48.2397 49.76C49.2397 51.88 50.3597 57.76 51.4397 59.31C47.2597 65.74 41.9097 68.43 33.6597 68.43C29.5441 68.4294 25.5011 67.3465 21.9362 65.2901C18.3713 63.2337 15.4097 60.2761 13.3487 56.7139C11.2876 53.1516 10.1994 49.1101 10.1934 44.9945C10.1873 40.879 11.2636 36.8343 13.3141 33.266C15.3647 29.6977 18.3175 26.7313 21.8764 24.6645C25.4353 22.5976 29.4751 21.5029 33.5906 21.4901C37.7061 21.4773 41.7526 22.547 45.3242 24.5918C48.8958 26.6365 51.867 29.5845 53.9397 33.14C54.7891 34.6127 55.4796 36.1714 55.9997 37.79L57.7197 43.1Z" fill="#9583A0"/>
<path d="M58.0801 33.65C57.2201 31.59 56.7801 30.46 56.0801 28.96L58.7101 21.5H66.8401L60.4901 40.67C60.2201 39.91 60.0001 39.27 59.8901 38.91L58.0801 33.65Z" fill="#9583A0"/>
<path d="M57.7505 43.09C57.8605 43.45 58.0805 44.09 58.3505 44.85V44.96L57.8805 43.69L57.6705 43.13L54.1005 33.48L53.9805 33.15C54.8154 34.6212 55.4925 36.1765 56.0005 37.79" fill="#9583A0"/>
<path d="M71.3201 55.01L67.7101 53.49L63.5801 41.55L65.3201 36.44L71.3201 55.01Z" fill="#9583A0"/>
<path d="M79 58.32L75.33 56.73L67 31.38L68.71 26.27L79 58.32Z" fill="#9583A0"/>
</svg>
