<svg width="93" height="141" viewBox="0 0 93 141" fill="none" xmlns="http://www.w3.org/2000/svg">
<path d="M92.5405 13.6902C93.5405 4.26023 85.0105 -1.63993 76.2705 1.27007C70.3505 3.27007 65.0605 8.03011 60.0105 11.5601C54.0105 15.7701 47.8305 19.8302 41.9305 24.2002C35.2205 29.2002 27.5705 36.5501 31.2105 45.7801C31.8011 47.3757 32.7066 48.8364 33.8731 50.075C35.0395 51.3136 36.4432 52.305 38.0005 52.9903C33.8205 59.2769 29.7871 65.6702 25.9005 72.1702C14.8005 90.6602 -0.269496 110.9 0.710504 133.44C0.960504 139.26 7.17047 141.72 11.8905 139.24C32.4405 128.47 43.2905 107.39 53.8905 87.7901C60.9238 74.8168 67.9572 61.8468 74.9905 48.8802L85.1705 30.1202C87.9005 25.1202 91.9005 19.5602 92.5405 13.6902Z" fill="white"/>
<path d="M89.4008 8.33008C88.8277 7.75865 88.1377 7.31796 87.3782 7.03833C86.6187 6.7587 85.8077 6.64686 85.0009 6.71021C84.9035 6.66601 84.7978 6.64307 84.6909 6.64307C84.584 6.64307 84.4783 6.66601 84.3809 6.71021C83.6209 7.04021 82.9109 7.44007 82.1809 7.82007C74.9609 4.62007 67.5508 13.3502 62.5208 17.7202C53.4608 25.6002 43.5909 34.4801 37.4209 44.8901C37.3303 45.0409 37.2876 45.2158 37.2983 45.3914C37.3091 45.567 37.3728 45.7351 37.4811 45.8738C37.5894 46.0124 37.7372 46.1148 37.9049 46.1677C38.0727 46.2206 38.2526 46.2216 38.4209 46.1702C38.629 46.57 38.9139 46.9251 39.2592 47.2148C39.6045 47.5046 40.0036 47.7236 40.4335 47.8591C40.8634 47.9947 41.3158 48.0442 41.7649 48.0049C42.214 47.9656 42.651 47.8383 43.0509 47.6301C43.4507 47.422 43.8057 47.1371 44.0955 46.7917C44.3853 46.4464 44.6042 46.0474 44.7398 45.6174C44.8754 45.1875 44.9249 44.7352 44.8857 44.2861C44.8464 43.837 44.719 43.3999 44.5109 43C44.11 42.112 43.3989 41.4009 42.5109 41C46.7777 35.7255 51.4055 30.7537 56.3609 26.1201C61.3009 21.3501 72.2109 8.44022 80.5009 8.73022C73.1509 13.1702 67.6309 20.0201 62.1109 26.6001C53.9036 36.4085 46.2644 46.6787 39.2309 57.3601C32.1309 68.1201 25.7208 79.3601 19.4508 90.5701C13.1808 101.78 6.71087 113.87 5.23087 126.87C5.21688 126.964 5.22301 127.06 5.24887 127.151C5.27473 127.242 5.31973 127.327 5.38086 127.4C4.16607 130.482 3.48957 133.749 3.38086 137.06C3.38829 137.195 3.43079 137.326 3.50415 137.44C3.57751 137.554 3.67922 137.646 3.79929 137.709C3.91935 137.772 4.05362 137.802 4.1889 137.797C4.32419 137.792 4.45582 137.752 4.57086 137.68C7.18438 135.922 9.56057 133.835 11.6408 131.47C11.7135 131.421 11.7777 131.36 11.8308 131.29C11.9815 131.284 12.1257 131.227 12.2409 131.13C29.6509 116.07 42.3209 95.41 54.3709 76.02C57.9309 70.3 61.3742 64.5168 64.7008 58.6702C64.8672 58.5602 65.0048 58.412 65.1022 58.238C65.1996 58.0641 65.2541 57.8694 65.2609 57.6702C74.1809 41.9835 82.3642 25.9069 89.8109 9.44019C89.9002 9.23816 89.9072 9.00919 89.8307 8.802C89.7542 8.59481 89.6 8.42557 89.4008 8.33008ZM42.7909 43.52C43.0409 43.8474 43.1838 44.2441 43.1999 44.6558C43.216 45.0674 43.1046 45.4741 42.8809 45.8201C42.0209 46.9701 39.9709 46.6302 39.2609 45.4702C39.9409 44.4702 40.6309 43.47 41.3509 42.53C41.8409 42.84 42.4109 42.95 42.7909 43.52ZM5.05087 135.28C5.32087 132.84 5.79086 130.45 6.16086 128.02C7.20862 128.314 8.18295 128.825 9.02087 129.52C9.4028 129.872 9.76027 130.25 10.0909 130.65C8.43085 132.24 6.82087 133.82 5.05087 135.28ZM11.8009 129.73C11.6937 129.672 11.5726 129.644 11.4508 129.65C10.152 128.201 8.37945 127.261 6.45087 127C12.3209 104 24.9709 83.3001 37.5909 63.4001C40.8442 58.2801 44.2342 53.2501 47.7609 48.3101C49.3163 51.0624 51.473 53.4282 54.0703 55.2307C56.6675 57.0332 59.6383 58.226 62.7609 58.7202C48.3409 84.3302 31.6809 108.85 11.8009 129.73ZM64.0109 56.6001C57.5009 55.3201 52.8309 52.0501 48.9109 46.8201C52.0709 42.4401 55.3375 38.1402 58.7108 33.9202C66.1208 24.6602 73.9409 13.6501 84.9809 8.59009C85.2196 8.48197 85.4063 8.28442 85.5009 8.04004C85.943 8.18552 86.3741 8.36268 86.7909 8.57007C87.2005 8.79881 87.5978 9.04916 87.9809 9.32007C80.6409 25.1201 72.7209 41.0301 64.0109 56.6001Z" fill="#1C1C1B"/>
<path d="M56.2307 39.3502C54.3324 41.3331 52.85 43.6759 51.8707 46.2403C51.7007 46.6903 52.3007 47.0502 52.5507 46.6002C53.8546 44.3153 55.4037 42.1794 57.1707 40.2303C57.2874 40.1057 57.3498 39.9396 57.3441 39.7689C57.3385 39.5982 57.2653 39.4369 57.1407 39.3202C57.016 39.2035 56.8501 39.1412 56.6795 39.1468C56.5088 39.1525 56.3474 39.2256 56.2307 39.3502Z" fill="#1C1C1B"/>
<path d="M58.3608 39.4702C56.9715 40.9444 55.7875 42.5993 54.8408 44.3901C54.5908 44.8201 55.2308 45.2901 55.5508 44.9001C56.8108 43.4001 58.2108 41.9902 59.4108 40.4502C59.5251 40.3086 59.5816 40.1288 59.5688 39.9473C59.556 39.7657 59.4748 39.5959 59.3418 39.4717C59.2087 39.3475 59.0336 39.2781 58.8516 39.2778C58.6696 39.2776 58.4942 39.3464 58.3608 39.4702Z" fill="#1C1C1B"/>
<path d="M21.6604 113.41C19.6367 116.281 17.4568 119.039 15.1304 121.67C14.7504 122.13 15.4104 122.75 15.8104 122.3C18.038 119.498 20.4252 116.827 22.9604 114.3C23.7704 113.6 22.3204 112.36 21.6604 113.41Z" fill="#1C1C1B"/>
<path d="M20.2302 111.35C19.0902 113.3 17.6702 115.07 16.4702 116.97C16.2202 117.36 16.8002 117.75 17.1002 117.43C18.6602 115.78 20.0402 113.96 21.6502 112.36C22.5602 111.49 20.9402 110.22 20.2302 111.35Z" fill="#1C1C1B"/>
</svg>
