<svg width="124" height="146" viewBox="0 0 124 146" fill="none" xmlns="http://www.w3.org/2000/svg">
<path d="M93.2302 6.83008C92.3002 1.98008 86.1202 -0.379844 81.8702 0.910156C57.0302 8.44349 31.9502 15.07 6.6302 20.79C1.6302 21.92 -0.0398311 26.7902 0.720169 31.2002C0.0923964 32.6516 -0.0751171 34.2605 0.240188 35.8101C7.03019 71.5801 18.2402 105.53 32.2402 139.12C33.9802 143.29 38.7602 147.12 43.5902 145.04C69.1368 134.193 94.4068 122.737 119.4 110.67C122.58 109.14 124.61 103.6 123.12 100.34C109.432 70.4858 99.3961 39.0888 93.2302 6.83008Z" fill="white"/>
<path d="M118.321 106.61C101.051 74.8902 88.3206 42.1602 82.9106 6.31016C82.8817 6.16667 82.8312 6.0285 82.7606 5.90025C84.1706 5.11025 82.7606 2.98029 81.2206 3.69029C57.2206 14.9803 32.5906 22.5803 7.05062 29.4503C6.93496 29.4704 6.82495 29.5149 6.72805 29.5812C6.63114 29.6474 6.54958 29.7338 6.48891 29.8343C6.42823 29.9348 6.38987 30.0471 6.37636 30.1637C6.36285 30.2803 6.37451 30.3984 6.4106 30.5101C6.23737 30.4097 6.03799 30.3638 5.83827 30.378C5.63856 30.3922 5.44771 30.4661 5.29042 30.5899C5.13314 30.7138 5.01666 30.882 4.95607 31.0729C4.89549 31.2637 4.89356 31.4683 4.95058 31.6603C8.72058 49.5903 13.6306 67.3301 18.3506 85.0401C22.6706 101.26 27.4306 117.73 35.6006 132.51C37.7806 136.51 38.4606 138.39 42.8206 138.1C50.0406 137.63 58.8206 132.6 65.5706 130.1C82.904 123.68 100.014 116.71 116.901 109.19C117.138 109.088 117.344 108.924 117.495 108.714C117.646 108.504 117.738 108.258 117.761 108C117.894 107.953 118.016 107.878 118.118 107.78C118.221 107.682 118.301 107.563 118.354 107.432C118.407 107.3 118.431 107.159 118.425 107.017C118.42 106.876 118.384 106.737 118.321 106.61ZM53.5806 131.53C48.0506 133.53 43.5806 136.45 37.8806 131.03C34.9306 128.22 33.0406 121.14 31.5106 117.41C20.2106 89.7303 15.6706 59.6303 6.88063 31.1503C7.10088 31.2977 7.37063 31.3515 7.63063 31.3002C32.7506 26.9502 57.3006 17.9202 80.3406 7.07017C85.6306 41.9902 96.9406 76.6003 116.041 106.48C102.171 112.64 88.1706 118.48 74.0406 123.95C67.2339 126.564 60.4139 129.09 53.5806 131.53Z" fill="#1C1C1B"/>
<path d="M26.0508 28.7801C21.758 30.2287 17.3622 31.352 12.9007 32.1402C12.1307 32.2602 12.1307 33.4102 12.9007 33.3702C17.6523 33.2729 22.321 32.1075 26.5608 29.9603C27.2308 29.5903 26.7408 28.5701 26.0508 28.7801Z" fill="#1C1C1B"/>
<path d="M26.3802 33.2901C23.7202 33.8001 21.0701 34.5301 18.4701 35.2901C17.6001 35.5301 18.0302 36.7701 18.8802 36.6001C21.5402 36.0801 24.2402 35.6001 26.8802 34.8201C27.8302 34.5001 27.3402 33.1201 26.3802 33.2901Z" fill="#1C1C1B"/>
<path d="M84.0406 36.8801C62.3206 42.8801 40.7306 49.54 19.2206 56.31C19.0708 56.3578 18.946 56.463 18.8738 56.6028C18.8016 56.7425 18.7879 56.9053 18.8356 57.0552C18.8833 57.205 18.9887 57.3296 19.1284 57.4018C19.2681 57.474 19.4307 57.4879 19.5806 57.4402C41.3606 51.6002 63.1506 45.62 84.7206 39.02C85.0044 38.9298 85.2407 38.7307 85.3776 38.4663C85.5145 38.2019 85.5408 37.8939 85.4506 37.6101C85.3604 37.3263 85.1612 37.09 84.8968 36.9531C84.6324 36.8162 84.3244 36.7899 84.0406 36.8801Z" fill="#1C1C1B"/>
<path d="M75.99 50.2801C58.21 55.8401 40.35 61.3502 22.66 67.2102C22.5447 67.2656 22.4533 67.3608 22.4026 67.4783C22.352 67.5958 22.3456 67.7275 22.3846 67.8494C22.4236 67.9713 22.5054 68.0751 22.6148 68.1414C22.7242 68.2077 22.854 68.2321 22.98 68.2102C40.98 63.8002 59.05 58.3301 76.64 52.3501C76.8892 52.2443 77.0901 52.0496 77.2035 51.8037C77.317 51.5579 77.3349 51.2786 77.2538 51.0203C77.1727 50.762 76.9984 50.5431 76.7648 50.4063C76.5312 50.2695 76.255 50.2245 75.99 50.2801Z" fill="#1C1C1B"/>
<path d="M81.2305 60.2802C63.4505 66.5302 45.5205 72.1602 27.6305 78.0502C27.5339 78.118 27.4616 78.2152 27.4244 78.3273C27.3873 78.4394 27.3872 78.5606 27.4242 78.6727C27.4612 78.7849 27.5333 78.8821 27.6299 78.9501C27.7265 79.0181 27.8424 79.0532 27.9605 79.0502C46.237 74.4638 64.2615 68.9265 81.9605 62.4603C83.3805 62.0003 82.6905 59.7802 81.2305 60.2802Z" fill="#1C1C1B"/>
<path d="M87.0406 71.8201C67.8006 77.8701 48.7006 84.4302 29.5006 90.6102C29.3375 90.6606 29.2011 90.7737 29.1214 90.9246C29.0417 91.0756 29.0251 91.252 29.0755 91.4151C29.1259 91.5782 29.2391 91.7148 29.3901 91.7945C29.541 91.8742 29.7175 91.8906 29.8806 91.8402C49.2706 86.5002 68.7806 80.7402 87.6706 73.8402C87.9384 73.7566 88.1621 73.5701 88.2925 73.3216C88.4228 73.0731 88.4491 72.7831 88.3656 72.5152C88.282 72.2473 88.0955 72.0237 87.847 71.8934C87.5985 71.7631 87.3084 71.7366 87.0406 71.8201Z" fill="#1C1C1B"/>
<path d="M83.6404 88.1201C67.7404 94.0401 51.6404 99.4401 35.7504 105.37C35.69 105.389 35.6339 105.42 35.5854 105.461C35.5369 105.501 35.4968 105.551 35.4676 105.607C35.4383 105.664 35.4204 105.725 35.4149 105.788C35.4094 105.851 35.4164 105.915 35.4354 105.975C35.4545 106.036 35.4852 106.092 35.5259 106.14C35.5667 106.189 35.6165 106.229 35.6727 106.258C35.7289 106.287 35.7902 106.305 35.8533 106.311C35.9164 106.316 35.98 106.309 36.0404 106.29C52.3904 101.93 68.4904 96.2902 84.3604 90.4202C85.8204 89.9202 85.1004 87.6001 83.6404 88.1201Z" fill="#1C1C1B"/>
<path d="M110.501 103.92C109.501 102.52 108.391 101.21 107.501 99.77C106.78 98.3716 105.947 97.0339 105.011 95.77C104.421 95.12 103.59 95.9101 103.73 96.5801C104.241 98.2076 105.082 99.7122 106.2 101C107.161 102.385 108.289 103.644 109.561 104.75C110.061 105.2 110.941 104.54 110.501 103.92Z" fill="#1C1C1B"/>
<path d="M102.66 95.6602C102.22 94.7402 100.66 95.6601 101.29 96.5501C102.72 98.7101 104 100.96 105.29 103.19C105.66 103.81 106.57 103.19 106.23 102.58C105.02 100.29 103.77 98.0102 102.66 95.6602Z" fill="#1C1C1B"/>
</svg>
