<svg width="144" height="110" viewBox="0 0 144 110" fill="none" xmlns="http://www.w3.org/2000/svg">
<path d="M138.621 5.00003C137.811 3.58098 136.587 2.44381 135.112 1.74124C133.637 1.03868 131.982 0.804457 130.371 1.0701C109.101 4.6401 88.3706 10.3302 66.9006 13.2102C56.9406 14.5436 46.9406 15.6236 36.9006 16.4502C27.7906 17.2202 15.8206 15.6702 7.48059 19.8802C5.62555 20.2571 3.93308 21.2001 2.63639 22.5791C1.33971 23.9582 0.502658 25.7054 0.240588 27.5801C-0.439412 31.5801 1.78058 35.3202 4.18058 38.1902C8.55058 43.4002 13.8206 48.3502 18.4506 53.4202C25.7606 61.4202 34.8806 67.9302 43.7106 74.4202C43.6606 75.9902 43.7106 77.5601 43.7106 79.0501C43.8963 85.8294 44.6152 92.5835 45.8606 99.25C46.0665 100.437 46.5378 101.562 47.2393 102.542C47.9409 103.521 48.8545 104.329 49.912 104.906C50.9696 105.483 52.1438 105.813 53.3469 105.873C54.5501 105.932 55.7512 105.72 56.8606 105.25C62.6477 102.979 68.2538 100.271 73.6306 97.1502L84.2506 105.26C84.7969 105.819 85.4198 106.297 86.1006 106.68L88.1006 108.19C88.9708 108.914 90.0202 109.388 91.1379 109.564C92.2557 109.74 93.4002 109.611 94.4506 109.19C95.8107 109.139 97.128 108.7 98.2475 107.926C99.367 107.152 100.242 106.075 100.771 104.82C114.821 75.9401 121.501 42.9302 141.821 17.4302C145.771 12.4802 143.021 7.12003 138.621 5.00003ZM91.4806 85.9102C90.9506 85.4602 90.4106 85.0201 89.8706 84.5801C90.6372 84.4887 91.3916 84.3143 92.1206 84.0601C91.9106 84.6801 91.6806 85.2902 91.4806 85.9102Z" fill="white"/>
<path d="M135.791 4.83998C135.775 4.63427 135.713 4.43489 135.609 4.25673C135.505 4.07856 135.362 3.92631 135.19 3.81166C135.019 3.697 134.824 3.62287 134.619 3.59486C134.415 3.56685 134.207 3.58574 134.011 3.65004C93.8507 14.29 53.4207 20.05 12.3007 25.35C12.0505 25.3832 11.8184 25.4983 11.6408 25.6776C11.4631 25.8569 11.35 26.0902 11.3191 26.3407C11.2882 26.5912 11.3413 26.8448 11.4701 27.0619C11.5989 27.279 11.7961 27.447 12.0307 27.5399C11.9885 27.7033 11.9997 27.876 12.0627 28.0326C12.1257 28.1892 12.2371 28.3214 12.3807 28.41C22.6707 34.87 32.3807 41.7401 41.1307 50.2301C41.4021 50.5048 41.7511 50.6895 42.1307 50.7599C43.8307 66.5599 50.3907 82.7601 54.7907 97.9501C54.8346 98.2232 54.9489 98.48 55.1224 98.6954C55.2959 98.9108 55.5226 99.0774 55.7801 99.1784C56.0376 99.2793 56.317 99.3114 56.5907 99.2714C56.8644 99.2313 57.1229 99.1206 57.3407 98.9501C57.6646 98.6646 57.9717 98.3606 58.2607 98.0399C61.5307 97.2699 64.6607 95.1599 67.4707 93.4999C70.9479 91.6298 74.222 89.4047 77.2407 86.86C77.3093 86.7868 77.3697 86.7064 77.4207 86.62C81.8907 91.19 86.3707 95.76 90.5607 100.62C90.7418 100.833 90.9744 100.997 91.2365 101.095C91.4985 101.193 91.7813 101.222 92.0579 101.18C92.3346 101.138 92.5958 101.026 92.8169 100.854C93.0379 100.683 93.2114 100.458 93.3207 100.2C106.861 68.5401 121.741 37.5801 137.421 6.93006C138.051 5.66006 136.901 4.75998 135.791 4.83998ZM37.9207 42.9999C30.1207 37.4799 23.3207 31.79 14.7907 27.57C53.7907 25.57 92.8407 17.7599 130.571 8.0099C108.957 17.6499 87.3507 27.3166 65.7507 37.0099C60.4607 39.3799 55.1707 42.2801 49.7507 44.2301C43.7707 46.3301 42.6007 46.3099 37.9207 42.9999ZM43.2607 50.5499C69.7207 38.8833 96.1474 27.1466 122.541 15.34C114.591 22.46 107.051 30.17 99.3607 37.41C87.6341 48.4434 75.9141 59.4766 64.2007 70.5099C63.8973 70.7899 63.702 71.1678 63.649 71.5773C63.596 71.9868 63.6886 72.4018 63.9107 72.7499C62.1807 78.8899 60.9807 88.9201 57.0707 94.4901C53.0407 79.9901 49.8207 63.9099 43.2307 50.5499H43.2607ZM65.9007 90.9601C64.3907 91.9101 62.7307 92.7801 61.1207 93.7401C63.9007 88.1901 65.1207 80.8601 66.5307 75.2201C69.4407 78.4501 72.4807 81.5701 75.5307 84.6901C72.2307 86.5501 69.1307 88.9201 65.9007 90.9601ZM91.3407 96.58C83.9807 88.13 76.1907 79.5801 67.0807 72.9901C67.1 72.8474 67.1 72.7026 67.0807 72.5599C79.1307 61.2899 91.0807 49.94 103.131 38.63C112.451 29.85 122.411 21.35 131.131 11.91C116.771 39.57 103.611 67.91 91.3407 96.58Z" fill="#1C1C1B"/>
<path d="M86.5705 82.8301C84.943 80.866 83.0865 79.1035 81.0405 77.5801C79.5005 76.2901 77.4905 74.0302 75.4005 73.8802C75.3367 73.8735 75.2723 73.8835 75.2136 73.9092C75.1548 73.935 75.1038 73.9757 75.0655 74.0271C75.0272 74.0786 75.0029 74.139 74.995 74.2027C74.9871 74.2663 74.9959 74.331 75.0205 74.3902C75.7105 76.3902 78.3805 77.9302 79.8705 79.3902C81.6005 81.0502 83.1305 83.0103 85.0005 84.4903C86.0605 85.3003 87.3005 83.8401 86.5705 82.8301Z" fill="#1C1C1B"/>
<path d="M90.0808 80.04C89.018 78.6953 87.8107 77.4714 86.4808 76.3901C85.3542 75.2901 84.2175 74.2034 83.0708 73.1301C82.4808 72.5701 81.6208 73.5301 82.0708 74.1301C83.1308 75.4601 84.2108 76.7701 85.2908 78.1301C86.2154 79.4432 87.2818 80.6506 88.4708 81.7302C89.6108 82.5302 90.7508 81.12 90.0808 80.04Z" fill="#1C1C1B"/>
<path d="M50.4504 26.6002C47.8504 26.7302 45.2604 27.4001 42.6904 27.7501C40.0892 27.9568 37.5017 28.3107 34.9404 28.8101C34.7851 28.8373 34.6443 28.9184 34.5428 29.0391C34.4414 29.1599 34.3857 29.3126 34.3857 29.4703C34.3857 29.628 34.4414 29.7805 34.5428 29.9012C34.6443 30.0219 34.7851 30.1031 34.9404 30.1302C37.6257 30.3786 40.3308 30.3115 43.0004 29.9302C45.7198 29.8073 48.4184 29.395 51.0504 28.7003C52.3404 28.3003 51.5804 26.5502 50.4504 26.6002Z" fill="#1C1C1B"/>
<path d="M57.7002 29.58C51.8302 30.5 45.8702 31.5101 40.0902 32.9101C39.8515 32.9472 39.6373 33.0776 39.4948 33.2726C39.3522 33.4677 39.293 33.7114 39.3302 33.9501C39.3673 34.1888 39.4977 34.4028 39.6928 34.5453C39.8878 34.6879 40.1315 34.7473 40.3702 34.7101C46.3002 34.3201 52.2902 33.5001 58.1702 32.6301C58.5746 32.5677 58.9377 32.3473 59.1797 32.0173C59.4216 31.6872 59.5225 31.2745 59.4602 30.8701C59.3978 30.4656 59.1774 30.1025 58.8473 29.8605C58.5173 29.6186 58.1046 29.5177 57.7002 29.58Z" fill="#1C1C1B"/>
</svg>
