<svg width="176" height="97" viewBox="0 0 176 97" fill="none" xmlns="http://www.w3.org/2000/svg">
<path d="M161.68 29.7102C155.24 24.0902 148.2 19.06 141.47 13.8C135.85 9.40004 130.17 3.80022 123.29 1.49022C116.97 -0.659775 110.73 0.650098 104.38 1.8601C94.8701 3.6701 85.3801 5.52008 75.8701 7.34008L18.8701 18.3401C13.6101 19.3401 9.87012 23.9702 11.8701 29.4502C13.0801 32.9002 11.3801 37.4501 7.40012 38.1601C-0.99988 39.7201 -1.65988 50.9201 4.09012 53.9001C12.8201 67.1101 25.3601 78.9 38.1401 88.02C50.7601 97.02 64.6001 97.6801 79.4601 95.3101C97.7092 92.2633 115.771 88.1868 133.56 83.1001C146.24 79.5701 165.56 76.9501 172.49 64.1601C179.42 51.3701 171.29 38.1202 161.68 29.7102ZM24.2901 47.7102L22.7401 46.8901C23.0201 46.5801 23.2701 46.2501 23.5301 45.8901C23.7087 46.5158 23.9639 47.1171 24.2901 47.6802V47.7102Z" fill="white"/>
<path d="M171.321 40.9002C171.288 40.7572 171.225 40.6231 171.135 40.5074C171.045 40.3916 170.931 40.297 170.801 40.2303C170.838 40.0229 170.824 39.8093 170.76 39.6087C170.695 39.4081 170.582 39.2265 170.431 39.0801C154.991 23.6201 132.961 16.9201 115.681 3.80008C115.59 3.7229 115.482 3.66793 115.366 3.63943C115.251 3.61094 115.13 3.60984 115.013 3.63602C114.897 3.66219 114.788 3.71496 114.696 3.79031C114.603 3.86566 114.53 3.96142 114.481 4.0701C81.0007 9.9001 46.6907 14.1402 13.6607 22.1502C13.555 22.1718 13.4565 22.2199 13.3743 22.2898C13.2921 22.3598 13.229 22.4492 13.1907 22.5501C12.9228 22.5629 12.6646 22.6541 12.4481 22.8123C12.2315 22.9705 12.0661 23.1887 11.9724 23.44C11.8787 23.6912 11.8608 23.9645 11.921 24.2259C11.9811 24.4872 12.1166 24.7251 12.3107 24.9102C13.0707 25.6202 13.8707 26.3 14.6407 27.01C15.1489 31.1522 15.1925 35.3384 14.7707 39.4903C14.3907 42.3703 13.4407 45.1602 12.9607 47.9702C9.84133 47.8852 6.72287 48.1703 3.67072 48.8201C2.55072 49.0901 1.48071 49.74 1.91071 51.01C1.94171 51.0939 1.99421 51.1684 2.06297 51.2256C2.13173 51.2828 2.21432 51.3208 2.30246 51.336C2.3906 51.3512 2.48118 51.3429 2.56512 51.312C2.64907 51.2812 2.72342 51.2289 2.78072 51.1602C9.18072 59.2602 18.1707 65.6803 26.0807 72.2303C33.3407 78.2303 40.8907 86.0203 49.5407 89.9903C51.5417 90.9588 53.7281 91.4839 55.9507 91.5301C56.0208 91.604 56.1066 91.6614 56.2018 91.6978C56.297 91.7341 56.3992 91.7487 56.5007 91.7403C85.5007 90.5603 115.121 84.4703 143.791 79.7403C153.731 78.1203 162.061 76.74 167.631 67.5C172.531 59.45 173.381 49.9702 171.321 40.9002ZM46.2307 84.9602C41.2307 81.5502 36.5007 77.4201 31.7807 73.5901C22.5107 66.0901 13.7807 56.9602 3.67072 50.6402C5.08056 50.4324 6.50726 50.3621 7.93071 50.4302C8.93071 50.3602 10.0407 50.3002 11.0907 50.2102C11.03 50.2295 10.9747 50.2629 10.9295 50.3079C10.8843 50.3529 10.8505 50.4079 10.831 50.4685C10.8114 50.5292 10.8066 50.5936 10.817 50.6565C10.8274 50.7194 10.8527 50.779 10.8907 50.8301C16.6107 59.0701 25.8907 65.1103 34.0907 70.7303C42.2907 76.3503 50.7707 81.8601 59.2007 87.2701C54.7417 88.2286 50.0846 87.3994 46.2307 84.9602ZM59.5807 85.0401C51.7807 79.3801 43.4407 74.4801 35.4607 69.1001C27.4807 63.7201 20.5407 57.1801 12.9607 51.3501C14.1606 50.2249 15.0023 48.7711 15.3807 47.1702C16.7807 47.9602 19.3807 51.1702 20.3807 51.9502C21.8407 53.0802 23.3807 54.1901 24.8307 55.2901C28.2207 57.7601 31.7007 60.1302 35.2207 62.4102C42.2038 67.0329 49.479 71.1982 57.0007 74.8802C57.5607 75.1502 57.9407 74.31 57.4107 74.01C48.1807 68.72 39.0107 63.5202 30.2807 57.4102C26.4807 54.7502 22.7807 51.9702 19.0807 49.1702C17.8407 48.2302 16.9007 47.0102 15.5307 46.6602C15.8107 45.6602 16.0307 44.6602 16.2207 43.6602C25.5475 52.8116 36.4576 60.1946 48.4207 65.4502C48.5653 65.5192 48.7313 65.5278 48.8822 65.4744C49.0332 65.4209 49.1568 65.3096 49.2257 65.1651C49.2947 65.0205 49.3034 64.8546 49.2499 64.7036C49.1965 64.5527 49.0853 64.4291 48.9407 64.3601C36.9407 58.8101 27.6907 49.46 16.3307 43.01C16.4407 42.44 16.5307 41.9002 16.6107 41.4502C16.7307 40.8102 16.8107 40.16 16.8907 39.51C29.8356 49.8367 43.4743 59.2625 57.7107 67.7202C58.4707 68.1802 59.0507 66.9302 58.3007 66.4702C44.0507 57.8502 30.4107 48.4002 17.0807 38.4702C17.2107 37.2802 17.2807 36.0801 17.3107 34.8701C23.6084 41.2158 30.5681 46.8682 38.0707 51.7303C38.7107 52.1403 39.4907 51.3001 38.8507 50.8101C31.5507 45.1601 24.4207 39.42 17.3307 33.52C17.3157 32.0688 17.2156 30.6198 17.0307 29.1802C24.7629 36.0295 32.9263 42.3758 41.4707 48.1802C50.7707 54.5102 61.1107 60.0702 65.2107 70.1802C65.4907 75.2702 64.9807 83.03 59.6507 85C59.5807 85 59.5807 85.0301 59.5607 85.0401H59.5807ZM61.0407 86.0401C60.8507 85.8901 60.6407 85.7601 60.4507 85.6201C63.1307 84.8201 64.7707 82.6701 65.7007 80.0201C65.4882 80.9355 65.2005 81.832 64.8407 82.7002C64.1424 84.3163 62.8957 85.6337 61.3207 86.4202C61.2508 86.2941 61.1468 86.1901 61.0207 86.1201L61.0407 86.0401ZM155.041 74.6402C144.521 78.5002 131.491 78.8602 120.431 80.6402C101.331 83.6402 81.8007 85.4501 62.7907 89.1001C66.6807 85.9401 68.7407 80.1001 68.3907 73.8501C68.378 73.7545 68.3545 73.6605 68.3207 73.5701C68.0137 70.1066 66.7997 66.7852 64.8007 63.9402C64.8007 63.9402 64.8007 63.9402 64.8607 63.9402C82.7207 62.9402 100.641 59.1702 118.161 55.6602C134.701 52.3602 151.361 48.8802 167.561 44.1502C169.091 43.7002 168.201 41.5001 166.701 41.8501C149.271 45.9401 131.991 50.4402 114.421 53.9302C97.9307 57.2002 81.1707 59.2501 64.7607 62.8501C64.6584 62.8737 64.5647 62.9255 64.4904 62.9998C64.4162 63.0741 64.3643 63.1677 64.3407 63.2701C61.2707 58.97 56.8507 55.35 52.4907 52.2701C39.4207 43.17 26.7907 34.1801 14.8707 23.5901C48.2607 19.9901 81.6007 12.5101 114.681 6.79007C114.899 6.7519 115.104 6.66094 115.278 6.52493C115.452 6.38892 115.591 6.21201 115.681 6.01004C131.111 20.78 153.241 26.01 168.681 41.01H168.751C168.726 41.122 168.726 41.2382 168.751 41.3501C171.171 53.5601 168.231 69.8402 155.061 74.6802L155.041 74.6402Z" fill="#1C1C1B"/>
<path d="M56.7003 63.12C53.2903 59.17 48.2703 55.86 43.8403 53.12C43.4103 52.86 42.9603 53.56 43.3603 53.86C45.5103 55.45 47.7103 56.98 49.8303 58.62C51.9503 60.26 53.9103 62.15 56.1403 63.62C56.4703 63.85 57.0203 63.48 56.7003 63.12Z" fill="#1C1C1B"/>
<path d="M53.8503 78.61C41.4703 69.43 29.137 60.19 16.8503 50.89C16.5203 50.64 16.1103 51.12 16.4303 51.39C28.2803 61.2 40.5203 70.6301 52.9603 79.6801C53.6803 80.2001 54.5803 79.12 53.8503 78.61Z" fill="#1C1C1B"/>
<path d="M35.4508 36.1201C34.0508 34.3701 31.6108 33.3701 29.7808 32.1201C27.6708 30.6801 25.6708 29.1201 23.5808 27.6501C23.4866 27.5719 23.3653 27.5342 23.2434 27.5454C23.1215 27.5567 23.009 27.6161 22.9308 27.7102C22.8525 27.8044 22.8149 27.9257 22.8262 28.0476C22.8374 28.1695 22.8966 28.2819 22.9908 28.3601C24.9418 30.1909 27.0167 31.885 29.2008 33.4302C30.9008 34.6902 32.8108 36.5002 34.9108 36.9702C35.0163 36.9864 35.1243 36.9714 35.2215 36.9272C35.3187 36.8831 35.401 36.8116 35.4582 36.7214C35.5155 36.6313 35.5453 36.5264 35.544 36.4197C35.5426 36.3129 35.5103 36.2088 35.4508 36.1201Z" fill="#1C1C1B"/>
<path d="M39.6403 36.0201C38.0277 34.7894 36.3375 33.6639 34.5803 32.6502C32.9103 31.4902 31.3103 30.2401 29.6503 29.0601C29.2503 28.7701 28.5803 29.2702 28.9703 29.6902C30.3819 31.2072 31.9283 32.5927 33.5903 33.8301C35.1653 35.2226 36.9464 36.3629 38.8703 37.2103C39.0261 37.2756 39.1999 37.2838 39.3613 37.2339C39.5227 37.1841 39.6614 37.0791 39.7531 36.9373C39.8449 36.7955 39.8839 36.626 39.8633 36.4583C39.8426 36.2907 39.7637 36.1354 39.6403 36.0201Z" fill="#1C1C1B"/>
<path d="M133.4 45.9401C129.961 46.5371 126.561 47.3452 123.22 48.36C123.081 48.418 122.967 48.5232 122.897 48.6574C122.828 48.7915 122.809 48.9457 122.842 49.0929C122.876 49.2401 122.96 49.3706 123.081 49.4616C123.201 49.5525 123.35 49.598 123.5 49.59C126.952 49.0707 130.369 48.3394 133.73 47.4C133.895 47.3309 134.03 47.2061 134.112 47.0472C134.194 46.8884 134.217 46.7059 134.178 46.5316C134.138 46.3574 134.039 46.2025 133.897 46.0944C133.755 45.9862 133.579 45.9316 133.4 45.9401Z" fill="#1C1C1B"/>
<path d="M134.69 42.1202C132.8 42.6102 130.92 43.0303 129.02 43.4403C128.44 43.5603 128.24 44.5302 128.96 44.5902C131.105 44.7384 133.258 44.4526 135.29 43.7501C136.36 43.3301 135.75 41.8102 134.69 42.1202Z" fill="#1C1C1B"/>
<path d="M85.0403 82.1201C80.3003 82.4301 75.3503 83.73 70.7203 84.77C70.1603 84.9 70.3803 85.77 70.9403 85.77C75.6703 85.23 80.7603 84.77 85.3603 83.55C86.1703 83.32 85.8303 82.1201 85.0403 82.1201Z" fill="#1C1C1B"/>
<path d="M88.4304 78.6803C84.6004 78.9203 80.7304 79.4401 76.9404 80.0401C76.8078 80.0521 76.6854 80.1162 76.6 80.2184C76.5147 80.3206 76.4735 80.4527 76.4854 80.5853C76.4974 80.7179 76.5615 80.8403 76.6637 80.9256C76.7659 81.011 76.8978 81.0521 77.0304 81.0401C80.8604 80.9701 84.7704 80.8202 88.5804 80.3902C88.6927 80.3804 88.8019 80.3486 88.9019 80.2965C89.0019 80.2444 89.0906 80.1731 89.163 80.0868C89.2354 80.0004 89.2902 79.9006 89.324 79.7931C89.3579 79.6856 89.3703 79.5726 89.3604 79.4603C89.3506 79.348 89.3187 79.2387 89.2666 79.1388C89.2146 79.0388 89.1433 78.95 89.057 78.8776C88.9706 78.8051 88.8708 78.7505 88.7633 78.7167C88.6558 78.6828 88.5427 78.6704 88.4304 78.6803Z" fill="#1C1C1B"/>
</svg>
