<svg width="90" height="138" viewBox="0 0 90 138" fill="none" xmlns="http://www.w3.org/2000/svg">
<path d="M80.8106 69.9702C75.4204 64.2145 68.3452 60.3144 60.6006 58.8301C61.9806 53.3101 62.8906 47.5902 63.8706 42.2402C65.2406 34.8102 67.2007 26.0401 66.0207 18.3401C67.7731 18.4605 69.5135 17.9734 70.9488 16.9607C72.384 15.948 73.4266 14.4714 73.9007 12.78C74.7607 9.49003 73.3206 4.7802 69.6106 3.7002C60.4906 1.1102 50.6906 0.410146 41.2306 0.400146C32.7206 0.400146 32.8506 14.5201 41.2306 15.3301C42.1306 15.4201 43.0207 15.5401 43.9107 15.6401C41.8607 22.2501 41.1806 29.4101 40.1206 36.1501C39.1206 42.4001 37.6306 48.7901 36.9806 55.1501C25.4106 54.2101 13.5206 60.7201 6.80056 70.3401C-2.19944 83.2501 -1.19937 100.69 6.24063 114.03C22.7306 143.61 68.9007 147.45 84.4007 114.75C91.0407 100.67 91.8306 82.1202 80.8106 69.9702Z" fill="white"/>
<path d="M59.9109 62.7901C62.0509 47.2401 64.2909 31.4601 64.9109 15.7901L66.7108 15.9102C66.9782 15.9204 67.2423 15.8483 67.4675 15.7039C67.6928 15.5595 67.8685 15.3496 67.9708 15.1024C68.0732 14.8551 68.0974 14.5825 68.0402 14.3211C67.983 14.0597 67.8472 13.8221 67.6509 13.6402C68.6255 12.6778 69.2465 11.4147 69.4135 10.0552C69.5804 8.69581 69.2835 7.3198 68.5708 6.1502C68.605 5.90359 68.54 5.65337 68.39 5.45464C68.24 5.25592 68.0174 5.12486 67.7709 5.09014C63.6509 4.47014 59.5209 3.91012 55.3909 3.32012C52.1409 2.86012 48.2809 1.71014 45.0009 2.59014C41.2609 3.59014 39.7009 7.38014 42.0009 10.5901C42.0416 10.6495 42.0967 10.6977 42.1609 10.7303C42.062 10.8141 41.9864 10.922 41.9417 11.0438C41.897 11.1655 41.8846 11.2967 41.9058 11.4246C41.9269 11.5526 41.9809 11.6729 42.0624 11.7737C42.1439 11.8746 42.2502 11.9525 42.3709 12.0001C43.7709 12.4601 45.2009 12.8403 46.6409 13.2003C44.5209 20.9703 43.1809 28.9302 41.7809 36.8502C40.5009 44.1502 38.5209 51.7502 39.1609 59.2002C18.3009 60.2002 7.92085 76.7502 7.74085 96.6302C7.57085 115.74 20.9908 128.3 39.2008 131.49C59.7308 135.08 73.6409 125.3 78.7409 105.41C83.0709 88.5102 78.9809 67.4101 59.9109 62.7901ZM43.0209 10.5201C43.0555 10.4638 43.0786 10.4015 43.0889 10.3362C43.0992 10.271 43.0964 10.2044 43.0808 10.1402C40.9208 2.14019 51.3208 4.77011 55.1708 5.31011C59.0208 5.85011 62.9609 6.41023 66.8609 6.93023C67.4332 7.9398 67.6617 9.10802 67.512 10.2588C67.3623 11.4097 66.8425 12.4806 66.0309 13.3101C58.2809 12.7901 50.7009 11.5401 43.0209 10.5201ZM74.6409 110.19C68.5009 127.19 53.7408 132.37 36.9408 128.43C20.1408 124.49 9.38089 111.94 10.4009 94.3502C10.8409 86.7302 12.7109 78.0802 17.4009 71.8802C22.8309 64.7002 31.3408 62.4203 39.8208 60.9903C39.9811 61.0458 40.1523 61.0623 40.3203 61.0386C40.4883 61.0149 40.6483 60.9515 40.787 60.8538C40.9257 60.7561 41.0391 60.627 41.1181 60.4769C41.197 60.3267 41.2391 60.1599 41.2409 59.9903C41.2409 44.4103 46.2409 28.9901 48.0309 13.5701C53.2324 14.7071 58.5154 15.4328 63.8308 15.7403C60.7408 31.2303 59.1709 47.2002 57.5409 62.9202C57.5212 63.1341 57.5628 63.349 57.6609 63.5401C57.6151 63.7117 57.6048 63.8908 57.6309 64.0665C57.657 64.2421 57.7188 64.4107 57.8125 64.5616C57.9062 64.7124 58.0298 64.8424 58.1757 64.9437C58.3216 65.0449 58.4868 65.1152 58.6609 65.1502C79.4209 69.4602 80.5309 93.9002 74.6409 110.19Z" fill="#1C1C1B"/>
<path d="M65.6109 8.28C59.0281 6.90048 52.3343 6.11747 45.6109 5.94016C45.472 5.92766 45.3337 5.96943 45.2249 6.05662C45.1161 6.14381 45.0451 6.26967 45.027 6.40793C45.0089 6.5462 45.045 6.68606 45.1277 6.79831C45.2105 6.91057 45.3335 6.98633 45.4709 7.00998C51.9881 8.66188 58.6423 9.71639 65.3509 10.1601C65.5574 10.1218 65.7466 10.0193 65.8917 9.86741C66.0367 9.71552 66.1302 9.52198 66.159 9.31394C66.1878 9.10589 66.1503 8.89403 66.0519 8.70847C65.9535 8.52291 65.7992 8.37293 65.6109 8.28Z" fill="#1C1C1B"/>
<path d="M73.6203 90.79C73.6203 89.87 72.6804 89.68 72.0404 90.04C71.912 89.8583 71.7353 89.7164 71.5303 89.6301C54.8403 82.5401 33.9004 77.9201 16.0304 83.1601C15.9651 83.1747 15.9044 83.2048 15.8536 83.2482C15.8028 83.2916 15.7634 83.3468 15.7387 83.4089C15.7141 83.471 15.705 83.5382 15.7122 83.6047C15.7195 83.6711 15.7429 83.7346 15.7804 83.79C2.35035 101.25 20.8403 121.64 38.1503 125.66C60.0803 130.75 73.9803 110.64 73.6203 90.79ZM70.5603 91.9101C70.7054 91.9725 70.8623 92.003 71.0203 91.9999C54.9303 97.2599 32.5503 89.3702 17.3403 84.2302C17.1816 84.1753 17.009 84.1753 16.8503 84.2302C16.8503 84.2302 16.8503 84.1801 16.8503 84.1601C35.9403 84.1201 52.5403 84.2701 70.5603 91.9101ZM39.8002 123.85C21.2502 120.42 8.8003 103.44 16.3503 85.4001C16.4341 85.5369 16.5606 85.6424 16.7103 85.7001C32.1203 92.2301 54.6103 99.7502 71.3103 94.4802C70.1403 111.19 58.5702 127.33 39.8002 123.85Z" fill="#1C1C1B"/>
<path d="M55.1002 70.1802C54.9744 70.2069 54.8569 70.2636 54.7577 70.3454C54.6585 70.4273 54.5805 70.5317 54.5303 70.6501C53.6213 70.4418 52.668 70.5576 51.8353 70.9775C51.0027 71.3975 50.343 72.0954 49.9702 72.9502C49.7252 73.5762 49.6131 74.2463 49.6409 74.918C49.6686 75.5897 49.8357 76.2484 50.1316 76.852C50.4274 77.4557 50.8455 77.9913 51.3594 78.4248C51.8732 78.8583 52.4717 79.1802 53.1166 79.3701C53.7615 79.56 54.4388 79.6138 55.1056 79.5281C55.7724 79.4423 56.414 79.2188 56.9899 78.8718C57.5657 78.5248 58.063 78.0619 58.4504 77.5124C58.8378 76.963 59.1068 76.3391 59.2402 75.6802C59.6602 73.4502 57.8002 69.6802 55.1002 70.1802ZM54.1002 77.4402C53.3674 77.3039 52.7116 76.8995 52.2605 76.3061C51.8094 75.7127 51.5955 74.9728 51.6603 74.2302C51.7116 73.8337 51.8527 73.4541 52.0727 73.1203C52.2928 72.7866 52.5861 72.5074 52.9303 72.3039C53.2745 72.1005 53.6605 71.9781 54.0591 71.9463C54.4576 71.9144 54.8581 71.9739 55.2302 72.1201C55.309 72.1651 55.4004 72.1827 55.4902 72.1702C56.4102 72.7902 57.2502 73.35 57.2502 74.75C57.2238 75.1348 57.1209 75.5106 56.9475 75.8552C56.7741 76.1998 56.5336 76.5063 56.2402 76.7568C55.9469 77.0073 55.6066 77.1969 55.2391 77.3142C54.8717 77.4315 54.4844 77.4743 54.1002 77.4402Z" fill="#1C1C1B"/>
<path d="M49.1009 55.1201C48.588 54.7351 47.9977 54.4661 47.3706 54.3315C46.7436 54.197 46.0948 54.2001 45.4691 54.3408C44.8435 54.4816 44.2559 54.7564 43.7469 55.1465C43.2378 55.5365 42.8195 56.0326 42.5209 56.6001C42.4813 56.6852 42.4611 56.7782 42.4619 56.8721C42.4628 56.966 42.4847 57.0585 42.5259 57.1428C42.5671 57.2272 42.6267 57.3012 42.7002 57.3596C42.7737 57.418 42.8593 57.4592 42.9508 57.4802C42.6167 58.054 42.4481 58.709 42.464 59.3728C42.4799 60.0366 42.6797 60.6831 43.0409 61.2402C44.4409 63.4402 47.6508 63.42 49.4608 61.76C49.8969 61.3124 50.2355 60.7794 50.4551 60.1943C50.6747 59.6093 50.7706 58.9851 50.7367 58.3611C50.7029 57.7371 50.5401 57.1269 50.2586 56.5691C49.977 56.0112 49.5828 55.5179 49.1009 55.1201ZM48.2609 60.3701C47.781 60.8741 47.1228 61.1698 46.4274 61.1941C45.732 61.2184 45.0548 60.9692 44.5409 60.5C44.3161 60.1977 44.1536 59.8539 44.063 59.4883C43.9724 59.1226 43.9555 58.7426 44.0132 58.3704C44.0709 57.9981 44.202 57.6409 44.3991 57.3198C44.5961 56.9988 44.8552 56.72 45.1609 56.5C45.2296 56.4633 45.2849 56.406 45.319 56.3359C45.3531 56.2659 45.3643 56.1868 45.3509 56.1101C45.7348 55.9535 46.1517 55.8953 46.5639 55.9407C46.976 55.9861 47.3702 56.1337 47.7108 56.3701C48.012 56.5896 48.2653 56.8679 48.4556 57.1882C48.6459 57.5086 48.769 57.8642 48.8177 58.2336C48.8663 58.603 48.8394 58.9785 48.7386 59.3372C48.6377 59.6958 48.4649 60.0302 48.2309 60.3201L48.2609 60.3701Z" fill="#1C1C1B"/>
<path d="M56.5702 26.7202C55.8769 26.3762 55.1011 26.2332 54.3308 26.3078C53.5605 26.3824 52.8265 26.6714 52.2121 27.1421C51.5978 27.6127 51.1276 28.2463 50.8551 28.9707C50.5825 29.695 50.5184 30.4813 50.6702 31.2402C51.5702 33.3302 54.4303 33.6402 56.1603 32.4402C56.6064 32.1222 56.9768 31.7096 57.245 31.2319C57.5132 30.7542 57.6726 30.2232 57.7118 29.6767C57.7509 29.1303 57.6689 28.5819 57.4715 28.0708C57.2742 27.5597 56.9664 27.0985 56.5702 26.7202ZM55.0002 31.3801C54.4881 31.6702 53.8837 31.7511 53.3133 31.6057C52.743 31.4603 52.2509 31.0999 51.9402 30.6001C51.8034 30.2795 51.7448 29.931 51.7692 29.5832C51.7935 29.2355 51.9001 28.8985 52.0802 28.6001C52.204 28.6652 52.3483 28.6798 52.4827 28.6406C52.617 28.6014 52.7307 28.5116 52.8002 28.3901C52.9212 28.1033 53.1145 27.8526 53.3613 27.6628C53.6081 27.473 53.8999 27.3504 54.2082 27.3071C54.5166 27.2638 54.8308 27.3013 55.1203 27.4158C55.4099 27.5302 55.6648 27.7178 55.8602 27.9602C56.0445 28.2366 56.1689 28.5484 56.2253 28.8757C56.2818 29.203 56.2691 29.5384 56.1881 29.8606C56.1071 30.1827 55.9596 30.4844 55.755 30.7461C55.5504 31.0078 55.2933 31.2238 55.0002 31.3801Z" fill="#1C1C1B"/>
<path d="M52.6806 35.5401C52.142 34.6974 51.3661 34.033 50.4507 33.6302C50.027 33.4015 49.6794 33.0539 49.4507 32.6302C49.1807 32.0702 49.3507 31.7503 49.4507 31.1903C49.4555 31.1484 49.4508 31.106 49.4369 31.0663C49.423 31.0265 49.4003 30.9901 49.3705 30.9603C49.3407 30.9305 49.3045 30.908 49.2648 30.8941C49.225 30.8802 49.1826 30.8754 49.1407 30.8802C47.7707 30.9402 47.8907 32.7502 48.4007 33.6302C48.7477 34.1837 49.225 34.6438 49.7908 34.9703C50.4405 35.3981 51.0557 35.8762 51.6307 36.4002C51.758 36.4772 51.906 36.5129 52.0544 36.5023C52.2028 36.4917 52.3443 36.4354 52.4595 36.3412C52.5746 36.2469 52.6576 36.1191 52.6972 35.9757C52.7369 35.8323 52.731 35.6801 52.6806 35.5401Z" fill="#1C1C1B"/>
<path d="M51.9604 37.7499C50.9665 37.2012 50.0459 36.5293 49.2204 35.7499C49.1263 35.6757 49.0065 35.6419 48.8874 35.656C48.7683 35.67 48.6597 35.731 48.5854 35.8251C48.5111 35.9193 48.4773 36.0391 48.4914 36.1582C48.5055 36.2772 48.5663 36.3859 48.6605 36.4602C49.6043 37.0811 50.4646 37.8204 51.2204 38.6601C51.8204 39.5101 52.9104 38.1199 51.9604 37.7499Z" fill="#1C1C1B"/>
<path d="M24.5409 67.6101C23.1909 67.9901 22.0009 69.4303 21.1409 70.4903C20.1191 71.7135 19.3294 73.113 18.8108 74.6202C18.7551 74.7528 18.7545 74.902 18.8089 75.0352C18.8632 75.1683 18.9682 75.2744 19.1009 75.3301C19.2335 75.3858 19.3827 75.3867 19.5159 75.3323C19.649 75.2779 19.7551 75.1727 19.8108 75.0401C20.4745 73.7205 21.2937 72.4851 22.2509 71.3601C23.1609 70.3601 24.4709 69.6501 25.2509 68.5701C25.3263 68.4619 25.3659 68.3328 25.364 68.201C25.3622 68.0691 25.319 67.9413 25.2406 67.8352C25.1622 67.7292 25.0524 67.6505 24.9269 67.6101C24.8014 67.5698 24.6664 67.5697 24.5409 67.6101Z" fill="#1C1C1B"/>
<path d="M26.2303 69.05C24.6007 70.0857 23.3379 71.6075 22.6203 73.4001C22.4203 73.9201 23.1703 74.4001 23.4903 73.9201C24.4281 72.447 25.6946 71.2113 27.1903 70.31C28.0403 69.76 27.0803 68.53 26.2303 69.05Z" fill="#1C1C1B"/>
<path d="M59.9403 109.57C59.2346 112.747 57.388 115.554 54.7503 117.46C54.3003 117.8 54.7504 118.62 55.2604 118.34C56.8975 117.484 58.3237 116.274 59.4358 114.799C60.5479 113.324 61.3179 111.62 61.6903 109.81C61.9103 108.67 60.2303 108.48 59.9403 109.57Z" fill="#1C1C1B"/>
<path d="M57.2303 106.99C56.9553 108.586 56.1979 110.058 55.0603 111.21C54.9542 111.291 54.8846 111.411 54.8668 111.543C54.849 111.675 54.8844 111.809 54.9653 111.915C55.0462 112.021 55.166 112.091 55.2982 112.109C55.4304 112.127 55.5642 112.091 55.6703 112.01C56.5072 111.472 57.2279 110.772 57.7895 109.951C58.3512 109.13 58.7425 108.205 58.9403 107.23C59.1403 106.12 57.4903 105.93 57.2303 106.99Z" fill="#1C1C1B"/>
<path d="M46.8605 99.5201C46.815 99.4994 46.7655 99.4889 46.7155 99.4889C46.6655 99.4889 46.616 99.4994 46.5705 99.5201C46.5495 99.4337 46.5075 99.3538 46.4482 99.2875C46.3889 99.2212 46.3141 99.1707 46.2305 99.1403C44.3505 98.5103 42.5006 100.47 42.1306 102.14C42.0419 102.616 42.0496 103.104 42.1534 103.577C42.2572 104.049 42.4548 104.496 42.7347 104.89C43.0145 105.285 43.3708 105.619 43.7824 105.874C44.194 106.128 44.6524 106.297 45.1306 106.37C45.5974 106.483 46.0822 106.5 46.5557 106.42C47.0293 106.34 47.4817 106.165 47.8856 105.905C48.2894 105.645 48.6363 105.306 48.9053 104.908C49.1743 104.51 49.3598 104.062 49.4505 103.59C49.5856 102.713 49.3974 101.817 48.921 101.068C48.4445 100.32 47.7123 99.7692 46.8605 99.5201ZM45.4006 104.68C45.1525 104.636 44.9158 104.543 44.7045 104.405C44.4933 104.268 44.3118 104.089 44.171 103.88C44.0301 103.671 43.9326 103.436 43.8845 103.189C43.8363 102.941 43.8384 102.687 43.8906 102.44C44.1706 101.14 45.1205 100.82 46.2205 100.44C46.3367 100.392 46.4347 100.308 46.5006 100.2C46.5325 100.262 46.5768 100.316 46.6306 100.36C48.8606 101.47 48.2306 105.36 45.4006 104.68Z" fill="#1C1C1B"/>
<path d="M33.0204 105.41C32.7604 102.69 29.7104 99.7101 26.8504 100.78C26.6708 100.85 26.5219 100.981 26.4303 101.15C25.4827 101.405 24.6395 101.952 24.0202 102.713C23.4009 103.474 23.0371 104.411 22.9804 105.39C22.9006 106.063 22.9654 106.745 23.1706 107.391C23.3757 108.037 23.7164 108.632 24.1698 109.136C24.6233 109.639 25.1791 110.04 25.8001 110.312C26.421 110.583 27.0928 110.719 27.7704 110.71C30.6004 110.67 33.3104 108.39 33.0204 105.41ZM28.0204 108.77C24.1304 109.16 23.9404 103.55 26.7504 102.33C26.8358 102.381 26.9315 102.412 27.0304 102.42C28.8304 102.64 30.6104 103.23 31.0304 105.29C31.0835 105.718 31.0467 106.152 30.9224 106.565C30.7981 106.978 30.5891 107.361 30.3086 107.688C30.0282 108.016 29.6824 108.281 29.2936 108.467C28.9048 108.654 28.4813 108.757 28.0503 108.77H28.0204Z" fill="#1C1C1B"/>
</svg>
