<svg width="141" height="140" viewBox="0 0 141 140" fill="none" xmlns="http://www.w3.org/2000/svg">
<path d="M140.37 35.29C140.42 25.75 143.2 11.23 134.08 4.77997C130.08 1.91997 124.47 1.89016 119.74 1.47016C112.84 0.856822 105.92 0.523489 98.98 0.470156C85.5135 0.445591 72.0658 1.47524 58.7601 3.54999C48.4401 5.11999 39.39 7.55007 36.76 18.8801C35.19 25.5401 35.5601 32.8801 35.2401 39.6601C34.8801 47.3301 34.36 55.0101 34.14 62.6601C33.99 67.8301 34.34 74.8102 36.86 79.4702C30.8484 84.6798 24.5304 89.5251 17.94 93.9802C11.77 98.0402 2.12004 102.07 0.450041 110.06C-1.21996 118.05 5.45003 122.76 12.34 124.39C24.21 127.19 36.5401 128.71 48.5601 130.88C60.5801 133.05 72.7 135.26 84.78 137.35C93.65 138.88 102.64 141.35 110.06 134.64C117.12 128.3 124.98 118.21 129.06 109.58C132.22 102.87 131.06 96.4302 127.95 90.4902C145.23 83.8802 140.3 48.76 140.37 35.29ZM108.37 17.29C108.212 16.7357 108.005 16.197 107.75 15.6801L109.95 15.79C109.361 16.2417 108.818 16.7509 108.33 17.31L108.37 17.29ZM114.69 104.74C114.91 103.56 115.08 102.38 115.22 101.18C115.456 101.082 115.686 100.972 115.91 100.85C115.91 100.95 115.91 101.05 115.91 101.15C115.773 102.434 115.342 103.67 114.65 104.76L114.69 104.74ZM123.55 74.8C123.35 75 123.17 75.16 123 75.31C123.787 73.4967 124.543 71.6402 125.27 69.7402C125.06 71.8302 124.61 73.73 123.51 74.82L123.55 74.8Z" fill="white"/>
<path d="M135.08 7.57019C127.63 1.42019 112.74 4.10019 104.08 4.07019C88.5004 4.07019 72.9505 3.88027 57.3805 4.41027C57.2362 4.4083 57.0949 4.45154 56.9765 4.53405C56.8581 4.61657 56.7686 4.73417 56.7205 4.87023C54.3205 5.35023 51.9404 6.8702 49.8904 8.0802C47.8392 9.26194 45.9444 10.6965 44.2505 12.3502C41.0905 14.4402 39.8905 18.1402 39.0105 23.6102C36.8805 36.6802 37.7905 50.7803 37.9205 63.9803C37.9205 68.9003 37.1205 76.6602 41.6805 79.6202C32.6105 84.8602 24.2305 91.4703 16.2805 98.2303C12.2805 101.67 2.97047 107.07 2.92047 113.23C2.80026 113.143 2.65673 113.095 2.50849 113.09C2.36024 113.086 2.21412 113.126 2.08908 113.206C1.96405 113.286 1.86588 113.401 1.80728 113.538C1.74869 113.674 1.73237 113.825 1.76047 113.97C3.69047 127.65 28.0605 125.97 37.4805 127.33C58.0605 130.27 78.4805 133.96 98.8405 138.27C99.1433 138.335 99.4596 138.287 99.7289 138.134C99.9983 137.981 100.202 137.734 100.3 137.44C100.387 137.464 100.478 137.469 100.567 137.453C100.656 137.437 100.74 137.401 100.813 137.348C100.886 137.295 100.946 137.227 100.989 137.148C101.032 137.068 101.056 136.98 101.06 136.89C101.06 136.83 101.06 136.78 101.06 136.72C109.696 127.464 117.714 117.649 125.06 107.34C129.25 101.6 129.3 97.8702 125.23 92.3402C125.064 91.2953 124.645 90.3069 124.01 89.4603C125.501 89.0007 126.785 88.0352 127.64 86.7303C130.015 85.7367 132.044 84.0632 133.47 81.9203C133.569 81.7728 133.634 81.6056 133.66 81.4303C133.768 81.3584 133.859 81.2637 133.926 81.1532C133.994 81.0427 134.036 80.9188 134.05 80.7902C135.944 66.8635 137.417 52.8869 138.47 38.8602C139.12 30.1202 143.17 14.2602 135.08 7.57019ZM9.08048 108.05C12.3905 102.87 20.3505 97.9901 25.0805 94.2601C30.8905 89.6701 37.0105 85.5202 42.9505 81.1102C43.0115 81.3128 43.1317 81.4924 43.2957 81.6261C43.4596 81.7597 43.6598 81.8413 43.8705 81.8602C56.3305 83.2402 68.8704 83.6003 81.3904 84.7203C87.3904 85.2537 93.3571 85.8501 99.2905 86.5101C102.54 86.8701 105.78 87.2603 109.03 87.6603L112.27 88.0702C114.119 88.7858 116.107 89.0665 118.08 88.8903C118.212 89.0376 118.387 89.1392 118.58 89.1803C130.18 91.8203 113.3 110.7 110.9 113.92C108.5 117.14 106.19 121.11 103.33 124.04C98.5504 128.93 95.4404 128.04 89.0204 127.12C74.3704 125 59.7505 122.67 45.1505 120.26C38.1172 119.1 31.0905 117.91 24.0705 116.69C20.2505 116.03 14.6005 116.06 11.0705 114.42L7.84046 113.85C6.03379 111.284 6.44714 109.35 9.08048 108.05ZM51.0804 127.05C44.4938 126.03 37.8938 125.084 31.2805 124.21C22.8605 123.1 8.92048 124.07 4.11048 115.71C21.3238 118.784 38.5538 121.72 55.8005 124.52C64.4671 125.933 73.1338 127.307 81.8005 128.64C86.0805 129.3 92.2605 131.37 97.1705 131.05C97.5205 132.05 98.1705 132.94 98.6105 133.91C98.9105 134.55 99.1605 135.2 99.4205 135.85C83.4005 132.5 67.2905 129.53 51.1105 127.04L51.0804 127.05ZM112.44 119.68C108.44 124.68 104.37 129.68 100.76 135.03C100.611 134.421 100.421 133.823 100.19 133.24C99.9033 132.382 99.5315 131.555 99.0804 130.77C99.2904 130.77 99.5104 130.68 99.7104 130.62C103.14 129.62 105.09 126.08 107.11 123.38C112.27 116.5 118.17 109.73 122.7 102.38C123.737 100.695 124.496 98.8555 124.95 96.9303C126.96 105.34 117.38 113.47 112.47 119.67L112.44 119.68ZM122.88 86.9103C119.49 85.1403 112.55 85.2502 108.99 84.8002C101.964 83.9335 94.9238 83.1503 87.8705 82.4503C73.6805 81.0703 59.2605 79.5401 44.9905 79.7601C44.9921 79.6237 44.9555 79.4898 44.8848 79.3732C44.8141 79.2565 44.7121 79.1619 44.5905 79.1002C44.5356 78.9471 44.4354 78.8145 44.3032 78.7198C44.171 78.6252 44.0131 78.5728 43.8505 78.5702C37.8505 73.8502 40.4605 57.7903 40.5005 51.4003C40.5605 43.1903 40.3005 34.7802 41.2405 26.6202C42.2405 18.0402 44.7405 14.3303 54.1005 12.9303C57.1905 12.4603 60.6005 12.7703 63.7205 12.7003C72.2305 12.5003 80.7205 12.2702 89.2505 12.1002C97.4613 11.7716 105.685 11.9688 113.87 12.6903C118.26 13.1603 126.24 13.4802 128.46 18.5602C130.06 22.2102 129.34 28.4002 129.46 32.3402C129.68 40.9202 129.547 49.5035 129.06 58.0902C128.75 63.0102 129.34 85.1203 122.91 86.9003L122.88 86.9103ZM136.65 27.6202C136.29 33.5136 135.867 39.4001 135.38 45.2801C134.38 57.0201 133.09 68.7303 131.68 80.4403C131.566 80.5174 131.465 80.6119 131.38 80.7203C130.712 81.7055 129.934 82.6113 129.06 83.4203C129.575 81.4077 129.933 79.3581 130.13 77.2902C131.796 63.4353 132.515 49.4829 132.28 35.5301C132.16 28.2801 134.13 15.8802 126.06 12.1002C116.61 7.67022 102.37 9.10016 92.2905 9.29016C78.5705 9.55016 64.5205 9.23025 50.8505 10.3903C50.4505 10.3903 50.0705 10.4701 49.6905 10.5201C50.0905 10.2901 50.4905 10.0602 50.9005 9.84021C53.1205 8.65021 55.7105 7.84033 57.7705 6.47033C57.9696 6.3386 58.1151 6.1399 58.1805 5.91027C70.1805 6.42027 82.0905 6.53021 94.0605 6.60021L110.74 6.70031C116.02 6.70031 122.53 5.7602 127.64 7.3302C137.39 10.3002 137.23 19.2702 136.68 27.6102L136.65 27.6202Z" fill="#1C1C1B"/>
<path d="M122.34 21.27C122.521 21.2667 122.7 21.2279 122.866 21.1555C123.032 21.0831 123.183 20.9786 123.309 20.8481C123.434 20.7177 123.533 20.5637 123.6 20.395C123.666 20.2263 123.698 20.0465 123.695 19.8652C123.692 19.684 123.653 19.505 123.58 19.3389C123.508 19.1727 123.404 19.0226 123.273 18.8967C123.143 18.7709 122.989 18.672 122.82 18.6057C122.651 18.5394 122.471 18.5067 122.29 18.51C97.0701 18.4633 71.8501 18.4302 46.6301 18.4102C46.2843 18.4153 45.954 18.555 45.7095 18.7996C45.4649 19.0441 45.3252 19.3744 45.3201 19.7202C45.2001 37.5502 44.6001 55.46 45.3201 73.27C45.3194 73.3975 45.3456 73.5237 45.3968 73.6404C45.4481 73.7571 45.5233 73.8617 45.6176 73.9475C45.7118 74.0333 45.8231 74.0984 45.9441 74.1384C46.0651 74.1785 46.1932 74.1928 46.3201 74.1802C46.2859 74.2467 46.268 74.3205 46.268 74.3953C46.268 74.4701 46.2859 74.5436 46.3201 74.6101C46.3544 74.6766 46.404 74.7341 46.4649 74.7776C46.5257 74.8211 46.5961 74.8493 46.6701 74.8601C57.9801 76.9901 69.94 76.86 81.41 77.51C94.01 78.19 106.67 79.3101 119.29 79.3901C119.539 79.4075 119.786 79.3397 119.992 79.198C120.197 79.0563 120.348 78.849 120.42 78.6101C120.512 78.5333 120.581 78.4331 120.62 78.3201C126.84 60.3501 121.41 39.88 122.34 21.27ZM47.1001 73.7302C47.1807 73.5894 47.2286 73.4319 47.2401 73.27C47.8101 62.69 47.7201 52.0802 47.8001 41.4802C47.8001 36.6002 47.17 31.2302 47.9 26.4202C48.41 22.9902 47.7301 22.0501 51.5601 21.0601C53.7901 20.4801 57.5601 21.0601 59.7901 21.0601C79.7901 21.1601 99.79 21.1802 119.72 21.2302C118.43 39.9002 121.37 58.1601 119.19 76.8401C107.19 75.6501 95.09 75.4301 83.08 74.8401C71.23 74.2501 58.9401 72.8102 47.1001 73.7302Z" fill="#1C1C1B"/>
<path d="M114.461 93.3501C91.173 88.6911 67.6329 85.3956 43.9609 83.4802C43.6809 82.7202 42.7609 82.23 42.1309 83.02C40.2709 85.31 38.3409 87.5202 36.3109 89.6602C34.4809 91.5902 32.2009 93.3702 30.7909 95.6602C30.5709 96.0102 30.9409 96.5902 31.3709 96.4102C32.7675 95.7804 34.0512 94.9257 35.1709 93.8801C36.6009 94.1901 38.0409 94.47 39.4709 94.76C39.1592 95.1363 38.937 95.5786 38.821 96.0532C38.7049 96.5278 38.6981 97.0224 38.8009 97.5C36.1209 97.05 33.4409 96.68 30.8009 96.5C30.1909 96.5 30.1109 97.37 30.6609 97.5L31.4409 97.7402C31.5116 97.7571 31.5859 97.7509 31.6529 97.7224C31.7198 97.694 31.7758 97.6447 31.8128 97.582C31.8497 97.5194 31.8656 97.4466 31.858 97.3743C31.8505 97.3019 31.82 97.2339 31.7709 97.1802C35.4909 100.72 43.2509 101.07 48.1409 102.18C54.0275 103.514 59.9342 104.753 65.8609 105.9C77.7009 108.267 89.5875 110.383 101.521 112.25C101.847 112.301 102.181 112.227 102.454 112.041C102.727 111.855 102.919 111.572 102.991 111.25C103.471 109.61 105.121 108.25 106.181 106.96C107.241 105.67 108.181 104.44 109.181 103.16L111.041 100.81H111.271C111.529 100.856 111.794 100.824 112.034 100.72C112.274 100.615 112.478 100.442 112.62 100.222C112.762 100.002 112.836 99.745 112.833 99.4832C112.829 99.2214 112.749 98.9662 112.601 98.75C113.271 97.86 113.921 96.96 114.511 96.03C114.588 95.9096 114.64 95.7751 114.664 95.6343C114.688 95.4935 114.683 95.3493 114.651 95.2102C115.381 94.8502 115.401 93.5301 114.461 93.3501ZM97.3409 93.76C97.4284 93.6446 97.4898 93.5116 97.5209 93.3701C99.3209 93.6101 101.121 93.81 102.921 94.03C102.441 94.83 101.921 95.6302 101.451 96.4202L96.0609 95.4202L97.3409 93.76ZM78.2909 95.02C80.2909 95.33 82.2909 95.69 84.3409 96.02C83.5109 97.15 82.7109 98.3002 81.9409 99.4802L75.8409 98.4802C76.6409 97.3002 77.4509 96.12 78.2909 95.02ZM73.8909 98.1201L69.0809 97.3101C69.8509 96.2401 70.5809 95.15 71.2909 94.04C72.6909 94.22 74.1009 94.3901 75.4809 94.5901L76.2109 94.7002C75.4009 95.8202 74.6309 96.9601 73.8909 98.1201ZM86.4909 96.3701L92.2309 97.3701C91.3909 98.5101 90.5609 99.6601 89.7409 100.81L83.9809 99.8101L86.4909 96.3701ZM94.3809 97.7202L100.011 98.7202C99.2909 99.8702 98.5509 101.01 97.8209 102.15L91.7509 101.15C92.6309 100.01 93.5076 98.8669 94.3809 97.7202ZM80.8809 91.7202C81.0149 91.5417 81.0853 91.3233 81.0809 91.1001C85.8475 91.7801 90.6309 92.4535 95.4309 93.1201C94.9209 93.7801 94.4309 94.4601 93.9009 95.1201L88.1209 94.1201L88.2109 94C88.8309 93.15 87.4009 92.0001 86.7409 92.8601L86.0309 93.79C84.0309 93.47 82.0309 93.12 80.0309 92.79C80.2809 92.44 80.5709 92.0502 80.8809 91.6702V91.7202ZM73.7609 89.9702C75.5809 90.2602 77.4109 90.5401 79.2309 90.8101C78.7609 91.3901 78.3109 91.9801 77.8509 92.5701L74.4909 92.0701L72.6809 91.8201C73.0409 91.1201 73.4209 90.5402 73.7609 89.9202V89.9702ZM66.3309 88.78L71.8009 89.6602C71.4009 90.2802 70.9909 90.89 70.5809 91.51L64.8609 90.6902C65.3861 90.064 65.8768 89.4097 66.3309 88.7302V88.78ZM61.0709 95C61.5909 94.36 62.1509 93.7301 62.7209 93.1001L69.0809 93.8001L66.9609 97.02C64.7509 96.67 62.5409 96.3002 60.3209 95.9602C60.5709 95.5902 60.8109 95.2602 61.0709 94.9502V95ZM60.0709 93.5801C59.5309 94.2701 59.0009 94.9702 58.4809 95.6702C55.9809 95.2902 53.4809 94.89 50.9909 94.52C51.2709 94.14 51.5409 93.7602 51.8409 93.4002C52.1409 93.0402 52.6509 92.46 53.0709 92.01C55.5809 92.33 58.0709 92.6101 60.6109 92.8801L60.0709 93.5801ZM56.8109 87.9802C56.9061 87.8769 56.9742 87.7514 57.0091 87.6152C57.044 87.4791 57.0447 87.3366 57.0109 87.2002C59.4609 87.6302 61.9109 88.0302 64.3609 88.4402C63.731 89.0554 63.1335 89.7029 62.5709 90.3801C60.2109 90.0601 57.8409 89.7502 55.4709 89.4902C55.9109 88.9502 56.3709 88.4502 56.7909 87.9302L56.8109 87.9802ZM47.9009 85.5901C50.3809 86.0501 52.9009 86.4702 55.3909 86.9102C54.5709 87.6002 53.7209 88.3802 52.8709 89.2302C50.5709 89.0302 48.2709 88.8801 45.9809 88.8101C46.6209 87.8701 47.2509 86.9302 47.8109 85.9402C47.8701 85.8157 47.8943 85.6773 47.8809 85.54L47.9009 85.5901ZM50.6709 91.6902C50.0197 92.4994 49.4186 93.3477 48.8709 94.2302C46.8709 93.9402 44.7809 93.6501 42.7409 93.3801L43.5709 92.2102L44.6209 90.7402C46.6009 91.0602 48.6209 91.3601 50.6509 91.6401L50.6709 91.6902ZM43.7209 84.8101L46.2309 85.27C45.3309 86.4 44.5009 87.57 43.6909 88.77C42.5509 88.77 41.4209 88.7701 40.2909 88.8201C41.4609 87.4701 42.6109 86.12 43.7009 84.76L43.7209 84.8101ZM36.6009 92.5901L37.6009 91.5901C38.2409 90.9701 38.8509 90.3002 39.4609 89.6502C39.4609 89.6502 39.4609 89.6502 39.5309 89.7002C40.5309 89.9402 41.5909 90.1401 42.6209 90.3501C42.2409 90.9201 41.8609 91.5001 41.4709 92.0701C41.2709 92.3701 40.9909 92.7301 40.6909 93.0701L36.6009 92.5901ZM39.9509 97.7402C39.9753 97.6689 39.9753 97.5913 39.9509 97.52C39.7709 96.91 41.0509 95.71 41.3509 95.29L41.4409 95.1702C43.5309 95.5902 45.6209 95.9901 47.7209 96.3901C47.368 97.1613 47.1031 97.9696 46.9309 98.8001C46.922 98.8745 46.9299 98.95 46.9542 99.021C46.9784 99.092 47.0183 99.1568 47.0709 99.2102C44.6909 98.6302 42.3109 98.1202 39.9309 97.6902L39.9509 97.7402ZM47.6109 99.3301C47.6109 99.3301 47.6909 99.33 47.7309 99.26C48.3709 98.44 48.9309 97.5902 49.4909 96.7302C51.9309 97.1802 54.3809 97.6 56.8209 98.03C56.1609 99.03 55.5509 100.03 54.9909 101.03C52.5209 100.43 50.0509 99.84 47.5909 99.28L47.6109 99.3301ZM56.1209 101.33C56.9209 100.33 57.7309 99.3301 58.5009 98.3301C60.7809 98.7301 63.0709 99.11 65.3509 99.5C64.7609 100.39 64.1709 101.3 63.5709 102.2C63.4852 102.332 63.454 102.493 63.4838 102.647C63.5137 102.802 63.6022 102.939 63.7309 103.03C61.2309 102.46 58.6409 101.88 56.1009 101.28L56.1209 101.33ZM64.9309 103.33L64.4109 103.22C64.4967 103.187 64.5724 103.131 64.6309 103.06C65.5409 102.06 66.4209 100.97 67.2809 99.8701C68.9809 100.16 70.6809 100.42 72.3809 100.7C71.6909 101.91 71.0509 103.15 70.4709 104.4C68.6009 103.95 66.7509 103.6 64.9109 103.23L64.9309 103.33ZM71.7509 104.65L74.1909 101L80.4309 102C79.6609 103.27 78.9309 104.54 78.2509 105.83C76.0609 105.34 73.9009 104.96 71.7309 104.55L71.7509 104.65ZM79.5309 106.07C80.4509 104.823 81.3642 103.567 82.2709 102.3L88.1009 103.24C87.2009 104.53 86.3309 105.83 85.4709 107.13L79.5309 106.07ZM89.9309 103.54L96.3309 104.54L93.9009 108.31C93.8566 108.383 93.8293 108.465 93.8209 108.55C91.4709 108.14 89.1209 107.75 86.7709 107.33C87.8109 106 88.8709 104.73 89.9109 103.44L89.9309 103.54ZM101.731 109.95C99.4909 109.58 97.2509 109.18 95.0209 108.79C96.1209 107.517 97.1776 106.21 98.1909 104.87L104.121 105.82C103.066 106.996 102.247 108.364 101.711 109.85L101.731 109.95ZM105.871 103.61L99.8709 102.61C100.661 101.49 101.421 100.36 102.161 99.2202C104.161 99.5936 106.191 99.9768 108.251 100.37C107.431 101.34 106.641 102.43 105.851 103.51L105.871 103.61ZM109.951 98.1101C107.841 97.6901 105.731 97.3002 103.621 96.9102C104.081 96.1702 104.541 95.4302 104.991 94.6802C105.043 94.5912 105.077 94.4925 105.091 94.3901C107.491 94.6801 109.891 95 112.291 95.27C111.461 96.12 110.681 97.03 109.931 98.01L109.951 98.1101Z" fill="#1C1C1B"/>
<path d="M68.1308 110.5C61.8177 108.738 55.4152 107.313 48.9508 106.23C48.7084 106.174 48.4545 106.193 48.2236 106.286C47.9928 106.379 47.7962 106.541 47.6608 106.75C46.0508 109.1 44.4208 111.44 42.8508 113.82C42.7222 113.996 42.665 114.214 42.6908 114.43C42.596 114.529 42.5283 114.651 42.4941 114.784C42.4599 114.916 42.4603 115.056 42.4955 115.188C42.5306 115.321 42.5992 115.442 42.6947 115.54C42.7902 115.639 42.9094 115.711 43.0408 115.75L43.3108 115.86C43.4593 115.9 43.6175 115.879 43.7507 115.802C43.8838 115.725 43.981 115.599 44.0208 115.45C44.0252 115.404 44.0252 115.357 44.0208 115.31L44.2008 115.24C44.8712 115.781 45.6772 116.127 46.5308 116.24L49.1908 116.84C50.6708 117.17 52.1408 117.52 53.6108 117.84C55.9208 118.4 59.0408 119.84 61.4308 119.74C65.4308 119.55 67.1808 115.34 68.8208 112.14C68.895 111.989 68.9359 111.823 68.9408 111.655C68.9456 111.486 68.9143 111.318 68.8489 111.163C68.7835 111.008 68.6856 110.868 68.5617 110.754C68.4379 110.639 68.2909 110.553 68.1308 110.5ZM59.5008 117.07C56.8108 117.07 53.2908 115.59 50.6308 115.07C48.9138 114.535 47.1633 114.114 45.3908 113.81C46.3308 112.22 47.5208 109.98 48.6508 109.32C50.4808 108.32 52.5708 109.2 54.4908 109.59C58.4008 110.38 62.2608 111.34 66.1008 112.39C64.6408 114.92 62.7708 117.12 59.5008 117.12V117.07Z" fill="#1C1C1B"/>
<path d="M21.6 113.61C19.53 113.33 17.45 113.16 15.39 112.79C13.56 112.47 11.77 111.92 9.91998 111.79C9.80347 111.793 9.69096 111.833 9.59927 111.905C9.50758 111.977 9.44163 112.077 9.41125 112.189C9.38087 112.302 9.38769 112.421 9.43072 112.529C9.47375 112.638 9.55069 112.729 9.64999 112.79C13.04 114.49 17.59 115.15 21.36 115.38C22.33 115.39 22.58 113.75 21.6 113.61Z" fill="#1C1C1B"/>
<path d="M22.54 111.76C21.6177 111.33 20.6426 111.024 19.64 110.85C18.57 110.58 17.5 110.29 16.43 110.05C16.2735 110.006 16.106 110.026 15.9644 110.106C15.8229 110.186 15.7187 110.319 15.675 110.475C15.6312 110.632 15.6514 110.799 15.7311 110.941C15.8108 111.082 15.9435 111.186 16.1 111.23C17.1 111.6 18.19 111.93 19.24 112.23C20.1854 112.617 21.177 112.879 22.19 113.01C22.3286 112.994 22.4595 112.938 22.5658 112.848C22.6721 112.758 22.7489 112.637 22.7866 112.503C22.8242 112.369 22.8208 112.226 22.7769 112.094C22.7329 111.962 22.6504 111.845 22.54 111.76Z" fill="#1C1C1B"/>
<path d="M96.2306 113.54C93.4006 112.98 90.5406 112.54 87.6906 112.06C86.9406 111.94 86.6006 113.06 87.3706 113.22C90.1606 113.89 92.9706 114.58 95.7906 115.15C96.8406 115.37 97.2806 113.75 96.2306 113.54Z" fill="#1C1C1B"/>
<path d="M96.8403 115.8C95.0286 115.884 93.2153 115.674 91.4703 115.18C91.4046 115.162 91.3362 115.158 91.2687 115.166C91.2013 115.175 91.1362 115.197 91.0772 115.231C91.0183 115.265 90.9665 115.31 90.925 115.364C90.8835 115.418 90.853 115.479 90.8353 115.545C90.8176 115.611 90.8129 115.679 90.8217 115.747C90.8304 115.814 90.8524 115.879 90.8863 115.938C90.9202 115.997 90.9654 116.049 91.0193 116.09C91.0731 116.132 91.1346 116.162 91.2003 116.18C93.0276 116.789 94.9209 117.178 96.8403 117.34C97.8003 117.39 97.8203 115.74 96.8403 115.8Z" fill="#1C1C1B"/>
<path d="M124.23 73.79C123.821 74.9716 123.513 76.1862 123.31 77.4202C122.96 78.7402 122.43 79.99 121.97 81.28C121.76 81.87 122.65 82.2102 122.97 81.6902C123.632 80.5293 124.172 79.3025 124.58 78.03C125.129 76.7961 125.412 75.4606 125.41 74.1101C125.31 73.5701 124.51 73.12 124.23 73.79Z" fill="#1C1C1B"/>
<path d="M126.73 76.9201C126.55 76.1601 125.53 76.4001 125.46 77.0901C125.39 77.7801 125.46 78.2601 125.39 78.8501C125.297 79.3859 125.142 79.9093 124.93 80.4101C124.79 80.7601 125.35 81.09 125.58 80.79C126.042 80.2672 126.383 79.6502 126.582 78.9819C126.781 78.3136 126.831 77.61 126.73 76.9201Z" fill="#1C1C1B"/>
<path d="M67.1504 15.25C65.3204 15.25 63.5104 15.68 61.6704 15.77C60.0734 15.6806 58.4714 15.7577 56.8904 16C56.8375 16.0145 56.7901 16.0445 56.754 16.0857C56.7179 16.1269 56.6946 16.1776 56.6872 16.2319C56.6797 16.2862 56.6884 16.3417 56.7121 16.3911C56.7357 16.4405 56.7734 16.4818 56.8204 16.51C58.3695 17.0812 60.0256 17.3033 61.6704 17.1602C63.5744 17.2552 65.4819 17.0664 67.3304 16.6001C67.487 16.5526 67.6217 16.4509 67.7103 16.3132C67.7989 16.1756 67.8357 16.0109 67.8141 15.8486C67.7924 15.6864 67.7138 15.5371 67.5922 15.4275C67.4706 15.3178 67.314 15.2548 67.1504 15.25Z" fill="#1C1C1B"/>
<path d="M68.8602 13.5802C66.8768 13.4688 64.8873 13.5526 62.9202 13.8302C62.8047 13.8534 62.7008 13.916 62.6262 14.0072C62.5515 14.0983 62.5107 14.2123 62.5107 14.3302C62.5107 14.448 62.5515 14.5622 62.6262 14.6534C62.7008 14.7445 62.8047 14.8069 62.9202 14.8302C64.888 15.0996 66.8771 15.18 68.8602 15.0701C69.0429 15.0489 69.2115 14.9614 69.3338 14.8241C69.4561 14.6867 69.5237 14.5092 69.5237 14.3253C69.5237 14.1413 69.4561 13.9636 69.3338 13.8262C69.2115 13.6889 69.0429 13.6014 68.8602 13.5802Z" fill="#1C1C1B"/>
</svg>
