<svg width="119" height="155" viewBox="0 0 119 155" fill="none" xmlns="http://www.w3.org/2000/svg">
<path d="M111.021 39.63C106.517 31.5483 100.231 24.599 92.6407 19.31C87.373 15.5715 81.7128 12.4196 75.7607 9.91006L76.3607 7.97012C78.9007 -0.139878 66.8307 -3.03006 63.8607 4.52994C63.4607 5.52994 63.1207 6.58001 62.7907 7.61001C61.963 7.85731 61.2033 8.29183 60.5705 8.87979C59.9376 9.46775 59.4485 10.1934 59.1411 11.0006C58.8336 11.8079 58.7161 12.6751 58.7975 13.5351C58.8789 14.395 59.1572 15.2249 59.6107 15.9601C36.2307 12.5301 12.4307 25.1901 3.83066 47.9601C-4.49934 70.0501 3.5607 93.5101 21.1207 107.46C20.3047 108.515 19.8969 109.83 19.9722 111.162C20.0475 112.493 20.6009 113.754 21.5307 114.71C26.6107 120.51 33.7507 124.31 41.5307 126.48C31.4707 128.54 21.5307 133.71 26.3007 144.06C29.4907 150.99 39.3007 152.18 45.9007 153.17C55.123 154.592 64.512 154.548 73.7207 153.04C80.2107 151.97 86.4707 149.12 86.8007 141.65C87.1107 134.86 82.0707 130.11 76.1207 127.86C75.3007 127.55 74.4407 127.26 73.5607 127C91.4007 122.7 106.381 109.35 113.701 92.6601C117.369 84.2118 119.036 75.03 118.572 65.8312C118.107 56.6324 115.522 47.6654 111.021 39.63ZM43.8107 68.2499C43.8107 68.3899 43.8107 68.5401 43.9007 68.6701C44.0841 69.4683 44.3489 70.2458 44.6907 70.9901C44.4407 70.9001 44.2007 70.7901 43.9607 70.6901C43.8479 69.9051 43.7911 69.113 43.7907 68.32L43.8107 68.2499Z" fill="white"/>
<path d="M39.2306 52.4901C39.1416 52.3454 39.0083 52.2331 38.8506 52.1701C37.2706 51.7001 35.8506 53.6201 35.7406 54.9901C35.6513 55.5736 35.7361 56.1704 35.9845 56.7059C36.2328 57.2415 36.6336 57.6918 37.1366 58.0006C37.6397 58.3094 38.2227 58.4628 38.8127 58.4418C39.4026 58.4208 39.9732 58.2265 40.453 57.8827C40.9329 57.539 41.3007 57.0612 41.5104 56.5094C41.7201 55.9576 41.7623 55.3563 41.6318 54.7807C41.5013 54.205 41.2038 53.6805 40.7767 53.2731C40.3496 52.8656 39.8118 52.5933 39.2306 52.4901ZM38.5506 56.4901C38.3695 56.4851 38.1915 56.4414 38.0284 56.3624C37.8653 56.2835 37.7209 56.1708 37.6046 56.0319C37.4884 55.8929 37.4029 55.731 37.354 55.5565C37.305 55.3821 37.2936 55.1991 37.3206 55.0199C37.4906 54.0199 38.2505 53.8699 39.0205 53.5099C39.0205 53.5099 39.0205 53.4501 39.0905 53.4301C40.5105 54.2201 40.6006 56.7201 38.5506 56.4901Z" fill="#1C1C1B"/>
<path d="M54.8905 22.5299C54.3605 22.1599 53.7606 22.7099 53.8206 23.2599C52.6719 23.934 51.6841 24.8505 50.9259 25.9455C50.1677 27.0404 49.6574 28.2876 49.4306 29.6C49.0406 31.84 49.7906 34.0699 52.4306 33.7699C57.3406 33.2199 58.7005 25.1899 54.8905 22.5299ZM52.8905 32.0099C50.4405 32.9399 50.8206 29.7301 51.3506 28.2401C51.9584 26.6723 52.9691 25.2926 54.2806 24.2401C55.0081 25.2918 55.3955 26.5412 55.3905 27.82C55.3405 29.44 54.5306 31.3899 52.9006 32.0099H52.8905Z" fill="#1C1C1B"/>
<path d="M66.4305 24.7901C66.3462 24.7118 66.2443 24.6549 66.1335 24.624C66.0227 24.5932 65.9061 24.5893 65.7935 24.6128C65.6809 24.6363 65.5755 24.6865 65.4862 24.7591C65.397 24.8316 65.3264 24.9246 65.2805 25.03C65.2377 24.9852 65.1828 24.9539 65.1224 24.9397C65.062 24.9255 64.9988 24.9292 64.9405 24.9502C63.3374 25.652 62.0216 26.8796 61.2105 28.4302C60.5705 29.6602 60.6905 31.4902 62.3605 31.7202C64.0305 31.9502 65.4505 30.4601 66.3605 29.3401C67.2705 28.2201 67.7605 26.0001 66.4305 24.7901ZM64.9405 28.6101C64.5305 29.1001 63.5005 30.2902 62.7705 30.2202C61.5605 30.1002 62.9805 28.1502 63.2905 27.7202C63.8953 26.97 64.5645 26.2739 65.2905 25.6402C65.5769 26.1017 65.6982 26.6468 65.6346 27.1863C65.571 27.7258 65.3264 28.2278 64.9405 28.6101Z" fill="#1C1C1B"/>
<path d="M112.151 38.29C104.151 23.51 89.9807 14.12 74.6207 8.29004C74.8864 7.30126 74.7629 6.24831 74.2755 5.34791C73.788 4.4475 72.9739 3.76836 72.0007 3.4502C71.0386 3.20169 70.0176 3.33564 69.1523 3.82422C68.2871 4.31281 67.6448 5.11787 67.3607 6.07007C67.1464 6.18103 66.9795 6.36573 66.8907 6.59009C65.1507 6.35009 63.1407 6.76006 62.1607 8.31006C61.5007 9.31006 61.2907 12.15 62.9607 12.25C62.8537 12.3839 62.7807 12.5417 62.748 12.71C62.7154 12.8782 62.724 13.0519 62.7731 13.2161C62.8223 13.3803 62.9105 13.5302 63.0303 13.6528C63.15 13.7754 63.2977 13.8672 63.4607 13.9202C64.4607 14.2302 65.3907 14.5502 66.3507 14.9202C65.6442 16.3556 65.1588 17.8897 64.9107 19.4702C57.3128 17.9158 49.47 18.0079 41.9107 19.7402C32.0115 22.1039 23.1879 27.7119 16.8452 35.6712C10.5024 43.6304 7.00524 53.4831 6.91071 63.6602C6.64071 80.7702 16.4607 97.47 30.9107 106.29C30.3815 107.444 30.0018 108.66 29.7807 109.91C28.9007 109.42 28.0207 108.91 27.1507 108.4C27.0937 108.362 27.0286 108.338 26.9607 108.33C26.8899 108.277 26.8091 108.239 26.7231 108.219C26.6371 108.198 26.5478 108.195 26.4607 108.21C23.2207 108.72 22.1507 112.65 23.7507 115.09C23.7336 115.202 23.7478 115.316 23.792 115.421C23.8361 115.525 23.9084 115.615 24.0007 115.68C32.2334 121.732 42.0172 125.318 52.2107 126.02C52.2107 127.26 52.2107 128.5 52.2107 129.74C46.3707 129.18 37.3307 129.2 32.7407 133.25C29.4507 136.16 28.8507 141.3 32.9207 143.73C33.0024 143.784 33.098 143.812 33.1957 143.812C33.2935 143.812 33.3891 143.784 33.4707 143.73C41.9007 150.97 56.6307 148.73 66.8007 148.57C73.2107 148.46 87.4807 144.69 80.8007 135.36C80.7291 135.243 80.6204 135.153 80.4919 135.104C80.3634 135.055 80.2222 135.05 80.0907 135.09C75.4207 130.61 65.6707 130.24 59.3207 130.49V130.38C59.4672 128.962 59.4939 127.533 59.4007 126.11C81.4007 125.11 102.911 111.94 111.991 90.8801C119.011 74.3201 120.951 54.48 112.151 38.29ZM71.8207 4.90015C72.3662 5.1452 72.8113 5.56932 73.0823 6.1023C73.3534 6.63528 73.434 7.24499 73.3107 7.83008C71.7307 7.25008 70.1407 6.70687 68.5407 6.2002C68.8482 5.63329 69.3452 5.19247 69.9448 4.95484C70.5443 4.71721 71.2084 4.69783 71.8207 4.90015ZM67.8207 15.4102C68.5907 15.6802 69.3607 15.97 70.1207 16.27C69.3178 17.4812 68.7669 18.8415 68.5007 20.27C67.6807 20.05 66.8607 19.8402 66.0307 19.6602C66.5125 18.2038 67.0973 16.7835 67.7807 15.4102H67.8207ZM71.1807 16.6902C82.9707 21.4102 93.9207 28.3802 101.341 38.9002C111.571 53.4002 111.341 69.9001 105.341 86.0501C102.795 93.2269 98.5861 99.6993 93.0591 104.938C87.5321 110.176 80.8436 114.032 73.5407 116.19C60.0007 120.19 46.1207 117.83 33.7007 111.91C34.0503 110.746 34.5513 109.633 35.1907 108.6C36.9985 109.46 38.8628 110.195 40.7707 110.8C41.8704 111.395 43.0259 111.881 44.2207 112.25C45.0507 112.57 45.8907 112.91 46.7407 113.25C46.7689 113.43 46.854 113.596 46.9836 113.724C47.1133 113.852 47.2805 113.935 47.4607 113.96C66.0407 117.68 85.9207 110.26 97.0407 94.7402C108.621 78.6002 107.951 55.4301 96.6007 39.3401C90.0907 30.1101 80.2507 23.7501 69.4407 20.6201C70.2757 19.4432 70.8547 18.1045 71.1407 16.6902H71.1807ZM43.1807 21.4702C43.1759 21.6522 43.2209 21.832 43.3107 21.9902C44.5607 24.2002 45.5907 25.9901 44.1007 28.1101C42.9807 29.7401 42.4207 29.7101 40.9307 30.6101C39.8869 31.1879 39.0062 32.0203 38.3707 33.03C36.3707 36.32 37.3107 41.0302 33.7407 43.4002C33.6809 43.4404 33.6319 43.4947 33.598 43.5584C33.5641 43.622 33.5464 43.693 33.5464 43.7651C33.5464 43.8372 33.5641 43.9083 33.598 43.9719C33.6319 44.0356 33.6809 44.0899 33.7407 44.1301C33.6556 44.0849 33.5648 44.0512 33.4707 44.03C27.8407 43.03 22.8307 46.77 24.5207 52.75C26.7207 60.5 36.0607 63.0201 42.2907 66.5801C40.9907 72.1201 35.8507 74.1002 33.5907 78.9802C31.7007 83.0402 35.4707 89.0802 32.0407 92.2302C25.2007 86.7202 19.5007 75.8402 17.2907 67.4402C15.2907 59.6902 17.1507 51.7602 13.3507 44.4402C19.2307 32.4202 30.4007 24.4602 43.1107 21.4702H43.1807ZM9.89069 53.9402C10.5417 51.1514 11.4696 48.4344 12.6607 45.8301C14.6607 54.9501 13.5607 64.1202 17.2807 72.9102C20.2807 80.1302 24.5007 88.9102 31.2107 93.4002C31.3543 93.4913 31.5271 93.5245 31.6943 93.4929C31.8614 93.4614 32.0103 93.3675 32.1107 93.2302C32.1858 93.2714 32.2701 93.2927 32.3557 93.2927C32.4413 93.2927 32.5256 93.2714 32.6007 93.2302C36.9907 90.3602 34.0507 85.3102 35.1107 81.2302C36.6007 75.4702 44.3307 73.11 43.9207 66.54C43.9083 66.3527 43.8304 66.1757 43.7007 66.04C43.6634 65.9508 43.6051 65.8719 43.5307 65.8101C39.9907 63.0001 35.7507 61.4501 32.0607 58.8901C29.8557 57.508 28.0928 55.523 26.9807 53.1702C24.5307 47.1702 29.1107 46.1701 33.2207 45.8201C34.0107 45.7501 34.4007 44.6502 33.8107 44.2202C33.8663 44.2491 33.9281 44.2642 33.9907 44.2642C34.0534 44.2642 34.1151 44.2491 34.1707 44.2202C38.8207 41.3902 37.5807 34.9602 42.4807 32.2202C44.4207 31.1302 46.2607 30.7101 47.0207 28.3501C47.8407 25.7801 46.4907 23.2602 45.1507 21.1602C53.0959 19.6421 61.2896 20.057 69.0407 22.3701C72.9903 23.5542 76.7738 25.2343 80.3007 27.3701C74.6607 26.1801 67.9207 27.09 65.6607 33.04C65.619 33.151 65.6046 33.2705 65.6187 33.3882C65.6328 33.5059 65.6749 33.6183 65.7416 33.7163C65.8082 33.8143 65.8974 33.8948 66.0017 33.9512C66.106 34.0075 66.2222 34.038 66.3407 34.04C66.3429 34.1491 66.3801 34.2547 66.4467 34.3411C66.5133 34.4275 66.6058 34.4901 66.7107 34.52C69.2763 35.1849 71.9669 35.2022 74.5407 34.5701C76.1207 34.2801 79.3707 33.3302 80.7107 34.7402L81.4907 38.8201C80.7899 39.4614 79.9301 39.9034 79.0007 40.1001C78.3007 40.3201 77.5607 40.4401 76.8507 40.6001C71.5507 40.0501 65.5707 37.5101 60.4307 39.6001C58.676 40.2531 57.2284 41.5382 56.3719 43.2031C55.5154 44.8681 55.3117 46.7928 55.8007 48.6001C53.4207 47.6001 49.6807 50.2402 49.6007 52.6902C49.5407 54.4502 51.3007 55.5002 52.6707 56.1802C54.8442 57.2978 57.23 57.9419 59.6707 58.0701C59.8027 58.0647 59.9315 58.0281 60.0464 57.9629C60.1614 57.8977 60.259 57.8061 60.3314 57.6956C60.4038 57.585 60.4488 57.4588 60.4626 57.3274C60.4764 57.196 60.4586 57.0633 60.4107 56.9402C63.4107 54.1102 66.0207 51.6002 70.6007 53.9402C73.1675 55.427 75.5563 57.2019 77.7207 59.2302C77.7613 59.2664 77.809 59.2934 77.8607 59.3101C72.7707 64.4301 65.7007 63.0402 59.2807 61.2202C56.6907 60.4902 53.8607 58.9502 51.9707 61.4102C51.856 61.5564 51.8005 61.7405 51.8154 61.9258C51.8302 62.1111 51.9142 62.284 52.0507 62.4102C51.9862 62.4587 51.9432 62.5304 51.9307 62.6101C51.3273 65.1183 51.6246 67.7588 52.7707 70.0701C55.9307 76.3901 60.8607 77.3002 59.8307 86.6902C59.3807 90.7802 56.6707 98.0402 62.0907 99.6902C62.2795 99.7354 62.4782 99.7121 62.6514 99.6245C62.8247 99.537 62.9613 99.3907 63.0369 99.2119C63.1125 99.0331 63.1222 98.8335 63.0643 98.6482C63.0064 98.4629 62.8846 98.3041 62.7207 98.2002C57.7207 95.2002 63.8507 83.8 61.8307 78.77C59.2207 72.29 53.3207 70.99 52.8307 62.77C52.9586 62.7674 53.0832 62.7295 53.1907 62.6602C55.3907 61.1902 60.7907 63.9602 63.1107 64.4302C65.5901 65.0149 68.1552 65.1436 70.6807 64.8101C72.4328 64.6118 74.111 63.9927 75.572 63.0054C77.0329 62.0181 78.2333 60.6919 79.0707 59.1401C79.1053 59.0686 79.1152 58.9877 79.0989 58.9099C79.0827 58.8321 79.0411 58.7619 78.9807 58.7102C78.9663 58.597 78.9213 58.4898 78.8507 58.4002C76.3607 55.0902 72.1107 51.75 67.9307 51.01C63.7507 50.27 61.6307 53.5001 59.4307 56.3901C57.1093 56.0265 54.867 55.2689 52.8007 54.1502C51.9707 53.6502 51.8007 53.6201 51.9607 52.5501C51.964 52.2284 52.0448 51.9124 52.1962 51.6287C52.3477 51.3449 52.5653 51.1019 52.8307 50.9202C53.3246 50.4518 53.9246 50.1099 54.5793 49.9236C55.2341 49.7373 55.9241 49.712 56.5907 49.8501C56.6452 49.8649 56.7029 49.863 56.7562 49.8445C56.8095 49.8259 56.8559 49.7915 56.8895 49.7461C56.923 49.7007 56.942 49.6463 56.944 49.5899C56.946 49.5334 56.9309 49.4779 56.9007 49.4302C57.046 49.3928 57.1732 49.3047 57.2593 49.1819C57.3455 49.0591 57.385 48.9094 57.3707 48.76C56.8907 37.26 69.1607 42.4102 76.5307 41.9902H76.6407C80.4207 42.1802 86.7507 39.1701 83.3307 34.5801C82.7122 33.8319 81.9317 33.2342 81.0481 32.8323C80.1645 32.4303 79.2011 32.2346 78.2307 32.26C74.5707 32.21 71.1407 33.55 67.4307 33.51C71.3707 27.97 77.1207 28.1601 83.2907 29.3401C98.8407 40.3401 107.141 59.9302 102.091 79.4402C101.751 80.7502 101.341 82.03 100.881 83.28C100.981 76.79 97.1907 69.8602 91.8807 66.6502C91.7716 66.5877 91.6497 66.5508 91.5243 66.5422C91.3989 66.5337 91.2731 66.5539 91.1566 66.6011C91.0401 66.6483 90.9358 66.7213 90.8516 66.8147C90.7675 66.9081 90.7056 67.0194 90.6707 67.1401C90.4707 68.1401 90.2407 69.07 90.0207 70.03C84.8607 76.12 83.6207 64.8102 83.2807 62.2302C83.3152 61.965 83.2429 61.6968 83.0798 61.4849C82.9166 61.273 82.6759 61.1346 82.4107 61.1001C82.1455 61.0656 81.8774 61.1379 81.6655 61.301C81.4536 61.4642 81.3152 61.705 81.2807 61.9702C77.1207 75.2402 72.7907 88.1002 63.4107 98.6702C63.3115 98.7931 63.2612 98.9484 63.2696 99.1062C63.278 99.264 63.3444 99.4129 63.4561 99.5247C63.5678 99.6364 63.7169 99.7028 63.8747 99.7112C64.0325 99.7196 64.1878 99.6693 64.3107 99.5701C73.4907 90.8801 78.0807 79.0302 81.7907 67.1802C82.1407 69.8302 82.7907 72.5702 84.7407 73.7302C87.7407 75.5402 89.9507 73.0902 91.5607 70.7302C91.6684 70.5594 91.7056 70.3535 91.6646 70.1558C91.6235 69.9581 91.5074 69.784 91.3407 69.6702C91.4707 69.3502 91.5907 69.0402 91.7207 68.7302C97.2707 74.1402 99.0007 79.9702 98.9207 87.7302C91.8007 101.9 77.1407 111.19 61.4307 112.73C61.3241 111.849 60.9711 111.015 60.4121 110.325C59.8531 109.635 59.1109 109.117 58.2707 108.83C55.1107 107.43 53.4207 107.59 50.1007 105.58C49.2722 104.957 48.3885 104.412 47.4607 103.95C44.2507 102.6 39.5507 102.78 36.0907 102.05C33.0307 101.41 30.9207 101 27.8607 102.05C13.5807 90.8501 5.55074 72.1802 9.82074 53.9402H9.89069ZM28.7207 102.52C34.0307 102.01 38.5107 105.13 43.7907 105.52C45.9507 105.69 58.1907 110.31 59.5907 112.67C56.4688 112.855 53.3364 112.724 50.2407 112.28C50.3056 112.198 50.3488 112.1 50.3665 111.997C50.3841 111.893 50.3758 111.787 50.342 111.688C50.3082 111.589 50.2502 111.499 50.1731 111.428C50.096 111.357 50.0024 111.306 49.9007 111.28C42.1947 110.189 34.887 107.176 28.6507 102.52H28.7207ZM32.1807 107.02C32.7507 107.34 33.3307 107.64 33.9107 107.94C33.2384 108.975 32.8204 110.153 32.6907 111.38C32.0707 111.07 31.4407 110.76 30.8207 110.38C31.1533 109.225 31.5849 108.101 32.1107 107.02H32.1807ZM57.4107 133.87C56.7002 134.257 55.9235 134.508 55.1207 134.61C54.645 134.639 54.1679 134.585 53.7107 134.45C53.7841 134.331 53.8318 134.198 53.8507 134.06C54.1062 131.381 53.9204 128.679 53.3007 126.06C54.9907 126.16 56.6807 126.17 58.3807 126.12C58.0829 127.302 57.8789 128.506 57.7707 129.72C57.4942 131.086 57.3502 132.476 57.3407 133.87H57.4107ZM58.2907 134.87C58.3296 134.817 58.363 134.76 58.3907 134.7C58.502 134.666 58.6028 134.604 58.6833 134.52C58.7639 134.436 58.8215 134.333 58.8507 134.22C58.9743 133.796 59.058 133.36 59.1007 132.92C59.1007 132.92 59.1007 132.92 59.1007 133C60.2707 135.88 57.4307 136.43 55.2307 136.58C54.3001 136.704 53.3563 136.687 52.4307 136.53C51.7689 136.41 51.1588 136.093 50.6807 135.62C49.5674 133.88 49.9974 132.997 51.9707 132.97C52.0337 132.98 52.0977 132.98 52.1607 132.97C52.1607 133.23 52.1607 133.5 52.1607 133.76C52.0943 133.771 52.032 133.799 51.98 133.842C51.9281 133.884 51.8884 133.94 51.8651 134.003C51.8417 134.066 51.8354 134.134 51.8469 134.2C51.8585 134.267 51.8874 134.329 51.9307 134.38C53.2907 136.12 56.6407 136.68 58.2307 134.91L58.2907 134.87ZM79.2907 136.8C79.378 136.896 79.4871 136.97 79.6089 137.016C79.7308 137.061 79.8617 137.076 79.9907 137.06C80.9907 141.34 76.9907 144.58 73.3307 145.96C71.2407 146.73 67.8207 146.43 65.4607 146.45C61.4607 146.45 57.5607 146.53 53.6207 146.52C46.2207 146.52 39.0707 145.97 32.7907 141.89C30.9507 139.2 32.1107 135.89 34.8507 133.95C36.9807 132.45 39.7507 132.12 42.2607 131.83C45.5874 131.629 48.8996 131.235 52.1807 130.65C52.1807 131.07 52.1807 131.49 52.1807 131.92C51.8112 131.758 51.4094 131.682 51.0061 131.699C50.6028 131.716 50.2088 131.825 49.8544 132.019C49.4999 132.212 49.1945 132.484 48.9615 132.813C48.7286 133.143 48.5744 133.522 48.5107 133.92C48.1707 136.16 50.3907 137.75 52.3307 138.11C54.5107 138.5 58.1307 138.39 59.9107 136.83C61.1907 135.72 61.8207 133.17 60.0307 132.26C59.8724 132.189 59.6934 132.178 59.5275 132.229C59.3617 132.281 59.2205 132.391 59.1307 132.54C59.1307 132.25 59.1307 131.97 59.1307 131.69C65.4107 132.37 74.7607 132.23 79.2307 136.84L79.2907 136.8ZM110.711 87.9302C107.532 95.7891 102.666 102.853 96.4553 108.623C90.2447 114.393 82.8419 118.728 74.7707 121.32C57.7707 126.84 41.2807 123.51 25.9307 115.32C25.9116 115.209 25.8633 115.106 25.7907 115.02C25.4143 114.633 25.1322 114.164 24.9665 113.65C24.8008 113.137 24.7557 112.591 24.8351 112.057C24.9144 111.523 25.1159 111.015 25.4239 110.571C25.7319 110.128 26.138 109.761 26.6107 109.5C53.7307 128.22 93.6107 120.78 106.551 88.76C113.221 72.24 114.401 55.19 104.551 39.76C95.3407 25.37 80.0207 16.9202 64.1007 11.9102C63.9911 11.8963 63.8803 11.8963 63.7707 11.9102C63.7707 11.9102 63.7707 11.9101 63.7707 11.8601C63.7707 11.3401 63.4807 10.9602 63.4607 10.4502C63.4431 9.98841 63.5961 9.53628 63.8907 9.18018C64.7207 8.18018 66.2207 8.27018 67.3707 8.18018C67.4954 8.17733 67.6168 8.13908 67.7207 8.07007C84.2307 13.1901 100.211 22.0702 109.401 37.2402C118.771 52.8802 117.141 71.4802 110.671 87.9702L110.711 87.9302Z" fill="#1C1C1B"/>
<path d="M90.2304 56.1202C90.3246 56.0043 90.376 55.8596 90.376 55.7103C90.376 55.561 90.3246 55.416 90.2304 55.3002C88.6004 53.6002 86.0604 52.0303 83.7304 53.4103C81.7304 54.6303 81.8404 57.5403 83.5504 58.9703C85.2604 60.4003 88.4604 60.4302 89.9804 58.6502C90.2736 58.3036 90.4544 57.876 90.4991 57.4242C90.5437 56.9724 90.45 56.5176 90.2304 56.1202ZM88.4804 57.6502C88.0058 58.0207 87.4224 58.2246 86.8204 58.2303C85.5604 58.3203 84.0904 57.7302 83.9504 56.3102C83.8104 54.8902 85.1404 54.4502 86.2704 54.6202C86.4924 54.6637 86.71 54.7272 86.9204 54.8102C86.8664 54.8405 86.8203 54.8833 86.7861 54.9349C86.7519 54.9866 86.7305 55.0457 86.7237 55.1073C86.7168 55.1689 86.7247 55.2313 86.7468 55.2892C86.7688 55.3471 86.8043 55.3988 86.8504 55.4403C87.1429 55.704 87.4821 55.9107 87.8504 56.0502C87.9188 56.1396 88.0131 56.2061 88.1204 56.2403C88.267 56.2685 88.4025 56.3375 88.5115 56.4396C88.6204 56.5416 88.6982 56.6721 88.7358 56.8165C88.7735 56.9609 88.7695 57.1133 88.7243 57.2555C88.6791 57.3977 88.5945 57.5241 88.4804 57.6202V57.6502Z" fill="#1C1C1B"/>
<path d="M41.7707 142.91C40.4027 142.736 39.06 142.4 37.7707 141.91C36.5447 141.316 35.3962 140.574 34.3508 139.7C33.9808 139.42 33.6307 139.99 33.8907 140.3C35.8378 142.555 38.5919 143.955 41.5608 144.2C42.3108 144.2 42.4807 143.04 41.7707 142.91Z" fill="#1C1C1B"/>
<path d="M45.8101 141.88C44.5201 141.52 43.22 141.33 41.95 140.88C40.5893 140.366 39.2746 139.737 38.0201 139C37.9466 138.96 37.8613 138.947 37.7794 138.965C37.6975 138.982 37.6246 139.028 37.5738 139.095C37.523 139.161 37.4977 139.244 37.5025 139.327C37.5074 139.411 37.542 139.49 37.6001 139.55C39.7415 141.693 42.5794 142.999 45.6001 143.23C45.7662 143.232 45.9276 143.174 46.0545 143.067C46.1814 142.96 46.2653 142.81 46.2908 142.646C46.3163 142.482 46.2818 142.314 46.1935 142.173C46.1051 142.033 45.969 141.929 45.8101 141.88Z" fill="#1C1C1B"/>
<path d="M95.7805 44.5201C94.9557 43.1677 93.9721 41.9188 92.8505 40.8002C91.8246 39.6188 90.6858 38.5404 89.4505 37.5802C88.9205 37.2002 88.4505 37.9903 88.8005 38.4203C89.8005 39.5703 90.9005 40.6101 91.8705 41.7801C92.8405 42.9501 93.6605 44.2502 94.6705 45.3802C95.2305 45.9902 96.1605 45.2101 95.7805 44.5201Z" fill="#1C1C1B"/>
<path d="M94.4002 48.1201C92.9433 45.4009 90.8463 43.0773 88.2902 41.3501C87.8802 41.0701 87.4102 41.7 87.7602 42.04C89.825 44.0822 91.544 46.4464 92.8502 49.04C93.4002 50.06 94.9202 49.1201 94.4002 48.1201Z" fill="#1C1C1B"/>
<path d="M24.7101 79.12C23.9632 77.6024 23.2956 76.0471 22.7101 74.4601C22.2501 72.9901 22.1401 71.4602 21.7101 69.9902C21.6666 69.8564 21.5775 69.7421 21.4584 69.6674C21.3392 69.5927 21.1977 69.5622 21.0584 69.5812C20.919 69.6003 20.7908 69.6677 20.6961 69.7716C20.6013 69.8756 20.5462 70.0096 20.5402 70.1501C20.3302 73.2601 22.1302 77.26 24.0902 79.61C24.4002 80.02 24.8801 79.53 24.7101 79.12Z" fill="#1C1C1B"/>
<path d="M25.4602 74.3701C24.7136 72.974 24.3286 71.4132 24.3402 69.8301C24.3402 68.8301 22.7503 68.8301 22.8103 69.8301C22.9156 71.6864 23.5933 73.4646 24.7503 74.9202C25.0803 75.3302 25.6902 74.8001 25.4602 74.3701Z" fill="#1C1C1B"/>
<path d="M84.6403 18.7002C82.281 16.7064 79.5329 15.225 76.5704 14.3501C76.0804 14.1901 75.7304 14.9802 76.2204 15.2002C78.8687 16.5263 81.4246 18.0297 83.8704 19.7002C84.0039 19.7712 84.1583 19.7924 84.3061 19.7605C84.454 19.7285 84.5857 19.6452 84.6779 19.5254C84.7702 19.4055 84.8171 19.257 84.8102 19.1059C84.8033 18.9548 84.7431 18.8111 84.6403 18.7002Z" fill="#1C1C1B"/>
<path d="M88.2305 18.5101C87.2305 17.8901 86.2305 17.3503 85.3105 16.7303C84.3905 16.1103 83.4805 15.3901 82.5105 14.8201C82.0905 14.5601 81.7005 15.1203 82.0005 15.4703C83.587 17.1892 85.4619 18.6173 87.5405 19.6902C87.6969 19.7817 87.8834 19.8072 88.0587 19.7613C88.2341 19.7153 88.384 19.6016 88.4755 19.4451C88.567 19.2886 88.5926 19.1021 88.5466 18.9268C88.5007 18.7515 88.3869 18.6016 88.2305 18.5101Z" fill="#1C1C1B"/>
</svg>
