<svg width="121" height="127" viewBox="0 0 121 127" fill="none" xmlns="http://www.w3.org/2000/svg">
<path d="M113.791 95.5801C102.791 82.4701 90.9707 68.7201 78.7907 56.5801C80.5036 54.1192 81.9326 51.4725 83.0505 48.6902C90.1505 30.8302 82.1206 11.4601 64.3506 4.26006C30.7706 -9.34994 -23.0894 37.8501 12.3506 67.2601C15.7233 70.1655 19.7002 72.2841 23.9932 73.462C28.2861 74.6398 32.7874 74.8476 37.1705 74.0701C44.9871 74.9979 52.9116 73.9669 60.2306 71.0701C62.6506 83.4201 71.0706 93.7301 79.2306 103.32C86.3106 111.67 99.0406 131.01 112.081 125.58C125.351 120.12 120.921 104.06 113.791 95.5801Z" fill="white"/>
<path d="M69.1002 15.9803C57.2702 1.25033 37.8801 8.0702 24.8001 17.3502C13.2601 25.5502 4.71019 42.0403 14.0002 55.2303C23.1402 68.2303 46.3702 66.7703 58.3602 58.2303C58.6062 58.3837 58.8902 58.4649 59.1801 58.4649C59.47 58.4649 59.7542 58.3837 60.0002 58.2303C74.8702 49.6203 80.4102 30.0503 69.1002 15.9803ZM58.2001 55.7003C57.9144 55.8629 57.7002 56.1271 57.6002 56.4403C46.8902 60.6203 34.1601 64.1003 23.2001 58.6903C6.53014 50.4503 13.6602 29.7602 25.1202 20.8502C35.7202 12.6102 53.3401 5.0603 64.6901 15.7003C77.8901 28.1203 72.2302 47.5703 58.2302 55.7003H58.2001Z" fill="#1C1C1B"/>
<path d="M113.231 112.39C113.168 112.145 113.03 111.926 112.836 111.763C112.643 111.6 112.403 111.501 112.151 111.48C104.071 98.1802 94.921 85.0201 85.801 72.3701C85.9038 72.3326 85.9968 72.2723 86.0728 72.1935C86.1488 72.1148 86.2058 72.0196 86.2396 71.9155C86.2733 71.8113 86.2829 71.7008 86.2675 71.5925C86.2522 71.4841 86.2124 71.3806 86.1511 71.29C85.3488 70.3996 84.4063 69.6464 83.361 69.06C83.2646 68.9915 83.1493 68.9548 83.0311 68.9548C82.9128 68.9548 82.7974 68.9915 82.701 69.06C82.4676 68.8031 82.1508 68.637 81.8067 68.5912C81.4626 68.5455 81.1134 68.623 80.821 68.81C80.521 68.98 80.2111 69.1901 79.9111 69.3701C77.9339 65.9347 75.4224 62.836 72.471 60.1901C84.591 47.0601 88.471 26.39 76.381 11.52C63.431 -4.48004 38.981 -0.570033 23.381 8.77997C6.23104 19.05 -6.90903 43.39 9.06097 60.78C22.571 75.46 45.291 73.5501 62.731 66.4501C63.493 68.1751 64.4136 69.8255 65.481 71.3801C66.621 73.0001 68.1311 75.2202 70.0311 75.9802C69.1111 76.7002 68.211 77.4301 67.371 78.1901C66.531 78.9501 67.021 80.3201 68.001 80.1901C68.0226 80.3179 68.0817 80.4361 68.171 80.53C74.121 86.44 76.9211 94.3099 81.7811 101C86.6411 107.69 92.4911 113.48 96.1611 121.23C96.2964 121.529 96.5339 121.77 96.831 121.91C99.401 125.81 104.941 126.63 108.891 124.36C110.863 123.152 112.367 121.309 113.155 119.134C113.944 116.96 113.971 114.582 113.231 112.39ZM19.231 64.53C-4.06899 52.59 5.31105 23.72 23.521 12.31C36.361 4.25 55.651 -0.939877 68.981 8.94012C87.241 22.4701 82.141 49.04 66.211 61.86C66.0118 62.0243 65.8542 62.2334 65.751 62.4702C50.231 66.4002 34.741 72.49 19.231 64.53ZM67.561 70.3C66.5617 68.7494 65.6824 67.1248 64.931 65.4401C65.531 65.1801 66.141 64.9201 66.721 64.6501C66.9376 64.7238 67.1698 64.7396 67.3943 64.6957C67.6189 64.6519 67.8281 64.5499 68.001 64.4001C68.351 64.1101 68.671 63.7999 69.001 63.4999L69.6511 63.1801C69.7642 63.1284 69.8601 63.0454 69.9274 62.9409C69.9948 62.8363 70.0308 62.7144 70.0311 62.59C70.2511 62.39 70.4411 62.1702 70.6511 61.9702C73.3711 64.6202 75.831 67.44 78.321 70.3C75.781 71.85 73.221 73.49 70.831 75.3C70.831 75.3 70.831 75.2201 70.831 75.1701C70.171 73.3701 68.5711 71.89 67.5411 70.3H67.561ZM107.391 121.92C104.601 123.56 101.281 122.68 98.711 121.06C98.7804 120.808 98.7804 120.542 98.711 120.29C95.861 111.53 88.651 105.58 83.491 98.2402C78.861 91.6502 76.151 84.2401 69.251 79.6501C73.9275 77.2473 78.3786 74.4293 82.551 71.2302C82.7972 71.0501 82.9822 70.7985 83.081 70.5099L83.511 70.9601C83.3321 71.1132 83.2129 71.3245 83.1745 71.5568C83.1361 71.7891 83.1808 72.0276 83.301 72.2302C90.9934 86.6491 99.9662 100.347 110.111 113.16C110.225 113.304 110.364 113.426 110.521 113.52C110.993 115.072 110.941 116.736 110.371 118.255C109.802 119.773 108.747 121.062 107.371 121.92H107.391Z" fill="#1C1C1B"/>
<path d="M106.881 116.89C105.821 116.01 104.611 115.36 103.581 114.42C102.522 113.427 101.546 112.35 100.661 111.2C100.301 110.74 99.4407 111.11 99.6607 111.7C100.541 113.639 101.772 115.398 103.291 116.89C102.205 116.053 101.2 115.116 100.291 114.09C99.2907 112.86 98.4806 111.48 97.5506 110.18C97.4564 110.06 97.3231 109.977 97.174 109.946C97.0249 109.914 96.8694 109.936 96.7348 110.008C96.6002 110.079 96.495 110.196 96.4376 110.337C96.3801 110.478 96.3741 110.635 96.4206 110.78C97.4819 114.196 99.649 117.161 102.581 119.21C103.691 119.99 105.021 118.53 104.091 117.61C104.582 117.997 105.111 118.332 105.671 118.61C105.784 118.69 105.911 118.746 106.046 118.776C106.181 118.806 106.32 118.81 106.456 118.786C106.592 118.763 106.722 118.712 106.839 118.638C106.955 118.564 107.056 118.468 107.136 118.355C107.215 118.242 107.272 118.115 107.302 117.98C107.332 117.845 107.335 117.706 107.312 117.57C107.288 117.434 107.238 117.304 107.164 117.187C107.09 117.07 106.994 116.97 106.881 116.89Z" fill="#1C1C1B"/>
<path d="M58.1107 14.85C56.3107 14.09 53.5208 13 51.6308 13.85C51.5414 13.8847 51.4624 13.9418 51.4014 14.0158C51.3404 14.0897 51.2994 14.178 51.2824 14.2724C51.2653 14.3667 51.2728 14.464 51.304 14.5546C51.3352 14.6452 51.3892 14.7262 51.4607 14.79C53.0607 15.91 55.3408 16.0201 57.1208 16.9101C58.9008 17.8001 60.4007 19.7199 62.3407 20.2599C63.1007 20.4699 63.6007 19.6201 63.4207 18.9801C62.8207 16.9701 59.9207 15.61 58.1107 14.85Z" fill="#1C1C1B"/>
<path d="M58.4201 18.9102C56.9356 17.6638 55.2148 16.7299 53.3608 16.1646C51.5067 15.5993 49.5575 15.4141 47.6302 15.6202C47.4372 15.6394 47.2574 15.7272 47.1237 15.8677C46.99 16.0082 46.9111 16.1921 46.9014 16.3858C46.8917 16.5795 46.9519 16.7703 47.071 16.9234C47.19 17.0765 47.36 17.1819 47.5501 17.2203C50.9673 17.7471 54.2253 19.0244 57.0901 20.9603C58.3201 21.7303 59.4101 19.8102 58.4201 18.9102Z" fill="#1C1C1B"/>
</svg>
